<?xml version="1.0" encoding="utf-8"?>
<!-- Generator: Adobe Illustrator 25.0.0, SVG Export Plug-In . SVG Version: 6.00 Build 0)  -->
<svg version="1.1" id="Capa_1" xmlns="http://www.w3.org/2000/svg" xmlns:xlink="http://www.w3.org/1999/xlink" x="0px" y="0px"
	 viewBox="0 0 800 800" style="enable-background:new 0 0 800 800;" xml:space="preserve">
<style type="text/css">
	.st0{fill:#DECBAD;}
</style>
<g>
	<path class="st0" d="M400.5,0.5C181.3,0.5,3,178.8,3,398c0,219.2,178.3,397.5,397.5,397.5S798,617.2,798,398
		C798,178.8,619.7,0.5,400.5,0.5z M400.5,741.1C211.3,741.1,57.4,587.2,57.4,398c0-189.2,153.9-343.1,343.1-343.1
		c189.2,0,343.1,153.9,343.1,343.1C743.6,587.2,589.7,741.1,400.5,741.1z"/>
	<path class="st0" d="M453.9,227.7c-10.6-10.6-27.9-10.6-38.5,0c-10.6,10.6-10.6,27.9,0,38.5L520,370.8l-302.8,0
		c-15,0-27.2,12.2-27.2,27.2c0,15,12.2,27.2,27.2,27.2l302.8,0L415.4,529.8c-10.6,10.6-10.6,27.9,0,38.5c5.3,5.3,12.3,8,19.2,8
		c7,0,13.9-2.7,19.2-8l151-151c5.1-5.1,8-12,8-19.2c0-7.2-2.9-14.1-8-19.2L453.9,227.7z"/>
</g>
</svg>
