<svg width="1701" xmlns="http://www.w3.org/2000/svg" height="2668" id="screenshot-ab31e8b4-a6a0-8037-8004-6365697831af" viewBox="-86 0 1701 2668" fill="none" version="1.1"><style>@font-face{font-family:&apos;Heebo&apos;;font-style:normal;font-weight:600;font-display:block;src:url(https://design.penpot.app/internal/gfonts/font/heebo/v26/NGSpv5_NC0k9P_v6ZUCbLRAHxK1EVyusd0mm_00.woff2) format(&apos;woff2&apos;);unicode-range:U+0590-05FF, U+200C-2010, U+20AA, U+25CC, U+FB1D-FB4F}@font-face{font-family:&apos;Heebo&apos;;font-style:normal;font-weight:600;font-display:block;src:url(https://design.penpot.app/internal/gfonts/font/heebo/v26/NGSpv5_NC0k9P_v6ZUCbLRAHxK1EVyusCUmm_00.woff2) format(&apos;woff2&apos;);unicode-range:U+0302-0303, U+0305, U+0307-0308, U+0330, U+0391-03A1, U+03A3-03A9, U+03B1-03C9, U+03D1, U+03D5-03D6, U+03F0-03F1, U+03F4-03F5, U+2034-2037, U+2057, U+20D0-20DC, U+20E1, U+20E5-20EF, U+2102, U+210A-210E, U+2110-2112, U+2115, U+2119-211D, U+2124, U+2128, U+212C-212D, U+212F-2131, U+2133-2138, U+213C-2140, U+2145-2149, U+2190, U+2192, U+2194-21AE, U+21B0-21E5, U+21F1-21F2, U+21F4-2211, U+2213-2214, U+2216-22FF, U+2308-230B, U+2310, U+2319, U+231C-2321, U+2336-237A, U+237C, U+2395, U+239B-23B6, U+23D0, U+23DC-23E1, U+2474-2475, U+25AF, U+25B3, U+25B7, U+25BD, U+25C1, U+25CA, U+25CC, U+25FB, U+266D-266F, U+27C0-27FF, U+2900-2AFF, U+2B0E-2B11, U+2B30-2B4C, U+2BFE, U+FF5B, U+FF5D, U+1D400-1D7FF, U+1EE00-1EEFF}@font-face{font-family:&apos;Heebo&apos;;font-style:normal;font-weight:600;font-display:block;src:url(https://design.penpot.app/internal/gfonts/font/heebo/v26/NGSpv5_NC0k9P_v6ZUCbLRAHxK1EVyusG0mm_00.woff2) format(&apos;woff2&apos;);unicode-range:U+0001-000C, U+000E-001F, U+007F-009F, U+20DD-20E0, U+20E2-20E4, U+2150-218F, U+2190, U+2192, U+2194-2199, U+21AF, U+21E6-21F0, U+21F3, U+2218-2219, U+2299, U+22C4-22C6, U+2300-243F, U+2440-244A, U+2460-24FF, U+25A0-27BF, U+2800-28FF, U+2921-2922, U+2981, U+29BF, U+29EB, U+2B00-2BFF, U+4DC0-4DFF, U+FFF9-FFFB, U+10140-1018E, U+10190-1019C, U+101A0, U+101D0-101FD, U+102E0-102FB, U+10E60-10E7E, U+1D2C0-1D2D3, U+1D2E0-1D37F, U+1F000-1F0FF, U+1F100-1F1AD, U+1F1E6-1F1FF, U+1F30D-1F30F, U+1F315, U+1F31C, U+1F31E, U+1F320-1F32C, U+1F336, U+1F378, U+1F37D, U+1F382, U+1F393-1F39F, U+1F3A7-1F3A8, U+1F3AC-1F3AF, U+1F3C2, U+1F3C4-1F3C6, U+1F3CA-1F3CE, U+1F3D4-1F3E0, U+1F3ED, U+1F3F1-1F3F3, U+1F3F5-1F3F7, U+1F408, U+1F415, U+1F41F, U+1F426, U+1F43F, U+1F441-1F442, U+1F444, U+1F446-1F449, U+1F44C-1F44E, U+1F453, U+1F46A, U+1F47D, U+1F4A3, U+1F4B0, U+1F4B3, U+1F4B9, U+1F4BB, U+1F4BF, U+1F4C8-1F4CB, U+1F4D6, U+1F4DA, U+1F4DF, U+1F4E3-1F4E6, U+1F4EA-1F4ED, U+1F4F7, U+1F4F9-1F4FB, U+1F4FD-1F4FE, U+1F503, U+1F507-1F50B, U+1F50D, U+1F512-1F513, U+1F53E-1F54A, U+1F54F-1F5FA, U+1F610, U+1F650-1F67F, U+1F687, U+1F68D, U+1F691, U+1F694, U+1F698, U+1F6AD, U+1F6B2, U+1F6B9-1F6BA, U+1F6BC, U+1F6C6-1F6CF, U+1F6D3-1F6D7, U+1F6E0-1F6EA, U+1F6F0-1F6F3, U+1F6F7-1F6FC, U+1F700-1F7FF, U+1F800-1F80B, U+1F810-1F847, U+1F850-1F859, U+1F860-1F887, U+1F890-1F8AD, U+1F8B0-1F8B1, U+1F900-1F90B, U+1F93B, U+1F946, U+1F984, U+1F996, U+1F9E9, U+1FA00-1FA6F, U+1FA70-1FA7C, U+1FA80-1FA88, U+1FA90-1FABD, U+1FABF-1FAC5, U+1FACE-1FADB, U+1FAE0-1FAE8, U+1FAF0-1FAF8, U+1FB00-1FBFF}@font-face{font-family:&apos;Heebo&apos;;font-style:normal;font-weight:600;font-display:block;src:url(https://design.penpot.app/internal/gfonts/font/heebo/v26/NGSpv5_NC0k9P_v6ZUCbLRAHxK1EVyuse0mm_00.woff2) format(&apos;woff2&apos;);unicode-range:U+0100-02AF, U+0304, U+0308, U+0329, U+1E00-1E9F, U+1EF2-1EFF, U+2020, U+20A0-20AB, U+20AD-20C0, U+2113, U+2C60-2C7F, U+A720-A7FF}@font-face{font-family:&apos;Heebo&apos;;font-style:normal;font-weight:600;font-display:block;src:url(https://design.penpot.app/internal/gfonts/font/heebo/v26/NGSpv5_NC0k9P_v6ZUCbLRAHxK1EVyusdUmm.woff2) format(&apos;woff2&apos;);unicode-range:U+0000-00FF, U+0131, U+0152-0153, U+02BB-02BC, U+02C6, U+02DA, U+02DC, U+0304, U+0308, U+0329, U+2000-206F, U+2074, U+20AC, U+2122, U+2191, U+2193, U+2212, U+2215, U+FEFF, U+FFFD}</style><g id="shape-ab31e8b4-a6a0-8037-8004-6365697831af"><g id="shape-72a435ee-d5e4-80c8-8004-635d313dd837"><ellipse cx="1072.371" cy="477.37" rx="7.395" ry="7.39" style="fill: rgb(95, 95, 95); fill-opacity: 1;" class="fills" id="fills-72a435ee-d5e4-80c8-8004-635d313dd837"/></g><g id="shape-72a435ee-d5e4-80c8-8004-635d49e19f65"><ellipse cx="1079.766" cy="514.319" rx="7.395" ry="7.39" style="fill: rgb(95, 95, 95); fill-opacity: 1;" class="fills" id="fills-72a435ee-d5e4-80c8-8004-635d49e19f65"/></g><g id="shape-ad955eb8-96dc-80c6-8004-6325f8df3baf" style="fill: rgb(0, 0, 0);"><g id="shape-ad955eb8-96dc-80c6-8004-6325f8df6edc"><defs><linearGradient id="fill-color-gradient-render-5-0" x1=".5" y1="0" x2=".5" y2="1"><stop offset="0" stop-color="#927c45" stop-opacity=".28"/><stop offset="1" stop-color="#927c45" stop-opacity="0"/></linearGradient><pattern patternUnits="userSpaceOnUse" x="1163.105" y="129.137" width="171.92" height="476.361" id="fill-0-render-5"><rect width="171.92" height="476.361" style="fill: url(&quot;#fill-color-gradient-render-5-0&quot;);"/></pattern></defs><path d="m1323.35 476.856-9.74 16.984-7.898 17.327-8.742 9.349-13.205 23.653-16.796 19.477-.499-2.119-3.403-1.932-11.738 4.83-5.588.686-2.685 2.275-2.092 4.736-2.185 8.633-12.269 1.682-7.742 7.822-8.554 6.046-5.338 1.621-3.84 2.493-13.33.935-6.431 4.144-.281-3.989-1.53-1.682-10.302-4.644-3.903-2.773.157-1.247 10.208-10.346 6.025-12.59 1.655-11.156.968-23.124 3.777-14.366 1.03-9.598-1.467-10.128-2.341-6.046-6.993-13.68-4.746-5.08-2.247-3.864-4.028 1.745-2.466-1.371-1.124-2.711.156-3.304 3.122-6.887 1.093-5.453 2.373-32.659-.906-14.741-6.212-11.655-.188-2.991 8.835-8.82 5.557-10.595 2.529-2.929 5.775-1.746 1.561 1.808.187-16.579 1.468-13.961 8.023-21.378 1.998-7.76.031-4.3-2.591-11.125-.968-8.508.375-13.93 2.622-10.003 4.621-10.658-.5-1.652-3.091-1.807-6.774-.904-3.216.405-7.055 3.771-4.027 1.028-3.996-.966-4.496-4.207 2.03-5.08 2.528-3.303 15.61-7.323 16.452-9.848 5.557-5.329 7.992-12.745 4.464-4.052 3.34-1.309 13.518 1.154 8.179-1.403 10.802-4.487 9.99-8.134 3.153-4.3 1.686-5.049 2.497-16.298 4.62-7.355 8.18-5.952 29.626-16.392 2.779 2.15.749 4.581-1.936 8.165-5.619 9.287-10.708 12.185-4.589 11.904-1.655 11.562 2.591 25.959-.811 4.362-6.182 10.534 3.996 4.799 7.93 6.762 3.496 4.862 1.78 3.085 3.621 12.995.687 7.51-1.061 5.08-2.03 5.204-4.807 5.235-1.717 3.428 1.03 6.919 4.464 1.589 7.368.779 4.089 1.901 11.364 16.392-1.28 16.734-8.616 7.604-.999 2.649 1.217 3.49 6.088 6.888.624 2.742-.78 1.558-2.872 1.714-6.057.717-10.708-2.836-2.279 1.839-1.28 3.334 2.716 11.156-1.592 20.07 2.81 9.13 4.62 42.414 9.366 12.963 1.842 4.457.031 3.521-2.466 6.794Z" fill="url(#fill-0-render-5)" class="fills" id="fills-ad955eb8-96dc-80c6-8004-6325f8df6edc"/></g><g id="shape-ad955eb8-96dc-80c6-8004-6325f8df6edd"><defs><linearGradient id="fill-color-gradient-render-6-0" x1=".5" y1="0" x2=".5" y2="1"><stop offset="0" stop-color="#927c45" stop-opacity=".28"/><stop offset="1" stop-color="#927c45" stop-opacity="0"/></linearGradient><pattern patternUnits="userSpaceOnUse" x="844.52" y="226.366" width="358.607" height="567.825" id="fill-0-render-6"><rect width="358.607" height="567.825" style="fill: url(&quot;#fill-color-gradient-render-6-0&quot;);"/></pattern></defs><path d="m1070.823 781.446-3.559-3.148.157-3.209-3.809-4.924-3.122-9.162.656-12.653-1.686-13.587-8.741-14.771-8.71-6.482-4.558-1.122-10.334-.187-26.317 4.83-6.275-.031-4.277-1.122-8.46-4.175-8.242-6.046-9.615-9.941-7.43-4.051-5.213.779-2.872 1.433-2.997 3.397-2.841-4.799-1.343-1.403-6.275-2.461-1.779-1.247-4.059-7.573-1.498-1.402-1.936-.873-3.121 1.216-3.903 6.357-5.838 2.805-1.623 1.402-.905 4.768-1.187 1.776-3.465 1.06-3.559 6.513-2.248 1.932-3.277 1.216h-1.499l-8.835-2.805h-8.366l-2.248-.717-1.936-2.275-1.342-3.178-2.092-.873-.905.686-2.404.187-1.623-4.207-1.655-1.247-3.278-1.06-1.061-3.365 1.654-5.454.281-4.207-1.342-1.589-2.966-1.247-1.342-2.991-1.062-.53-2.528.187-1.499-1.434-.905-3.334v-5.298l-2.092-2.275-1.03-.374-1.53-1.402-.437-2.462 1.218-1.776 2.091-.686h4.028l4.183 1.745 2.529.374 3.309-.716.437-2.307-1.187-1.745-8.085-2.119-1.78-2.462-.312-2.649.593-3.708 2.092-3.708 1.499-1.59 2.997-1.215h2.684l3.278.872 5.994 2.992h2.404l1.623-1.402 1.655-2.649 3.871-9.162 1.811-2.493 9.428-5.267 1.467-1.433.905-1.932-.156-3.865-1.779-2.493-2.56-1.932-.874-2.119.281-6.357.749-2.119 1.342-1.403 1.343-.187 1.498 1.434 2.716 4.581 1.03.53 1.936-.717 3.434-3.864.905-1.964.469-2.461v-1.403l-1.218-3.178 5.089-3.709 1.186-1.589.312-1.247-2.404-6.357-.281-2.649.281-1.215 7.93-12.559.312-3.708 1.03-3.366-.156-2.805-1.03-2.991-2.841-4.426-3.902-9.536-.125-3.895 2.092-8.134-.469-2.461-3.434-2.494-10.021-2.991-5.526-4.768-4.776-2.493v-2.306l1.779-6.887.157-2.805-1.187-1.621-2.841-1.589-2.091-2.275-1.187-3.178-.468-3.896-.999-.249 1.592-11.624-2.154-6.326-3.746.53-1.03-1.527-1.218-.904-1.779-.156-.593.53v1.402l-1.062-.343-1.342.156v-1.402l2.404-6.357.281-4.613 2.091-8.663.156-5.142.469-1.059-.156-2.12.281-.187v-1.776l.624-2.119-.156-.873 1.342-3.365v-1.589l.906-.374v-4.768l.593-.53.437-2.649 2.091-3.895-.156-2.494-.437-.872.437-.374v-2.306l.75-1.402-.125-1.777.874-1.932-.156-.53.749-.374-.281-1.776 1.03-2.119.468-2.649.75-1.433.281-2.649 1.498-2.649-.593-.343v-1.433l1.499-1.247-.313-.343.469-1.433-.313-.873 1.062-1.589-.312-1.777h.437l-.125-1.932.718-.561.156-4.051.593-1.246.312-5.859.593-1.06v-1.932l-.437-.561v-6.045l24.007-.343 16.952-1.434 19.075 3.304 1.873-.811 3.09-3.334 6.213-2.026 19.917-.654 20.729-2.898 10.646 2.524 9.053 17.171 5.058 5.796 8.117 4.799 3.121.904 13.674-6.077 14.766-1.184 3.903-2.057 9.178-8.819 2.654-3.615 4.401-3.241 2.342-.249 9.49 2.275 9.085-3.428 1.28-1.527.718-8.071 1.217-2.68 10.24-4.332 2.685-6.389 1.092-13.961 3.372-15.488 3.465-6.014 2.654-7.105-.437-7.76-1.936-8.726.25-4.986 4.589-10.44 3.122-2.617 5.057-6.638 5.151-11.344 1.28-1.34 3.778 3.086 12.737 18.137 2.092.654 1.966-1.901 4.496 4.207 3.996.966 4.027-1.028 7.055-3.771 3.216-.405 6.774.904 3.091 1.807.5 1.652-4.621 10.658-2.622 10.003-.375 13.93.968 8.508 2.591 11.125-.031 4.3-1.998 7.76-8.023 21.378-1.468 13.961-.187 16.579-1.561-1.808-5.775 1.746-2.529 2.929-5.557 10.595-8.835 8.82.188 2.991 6.212 11.655.906 14.741-2.373 32.659-1.093 5.453-3.122 6.887-.156 3.304 1.124 2.711 2.466 1.371 4.028-1.745 2.247 3.864 4.746 5.08 6.993 13.68 2.341 6.046 1.467 10.128-1.03 9.598-3.777 14.366-.968 23.124-1.655 11.156-6.025 12.59-10.208 10.346-.157 1.247 3.903 2.773 10.302 4.644 1.53 1.682.281 3.989-15.173 6.607-3.496 3.989.999 8.944-6.088 2.399.25 3.864-1.311 1.527-4.745 1.34-7.774 5.89-.718 6.513 1.686 1.964-.78 9.442 1.217 2.929 3.996 2.182 1.061 3.958-2.559 5.921-.375 5.952 5.526 11.437-.531 1.309-5.37-.063-.967 5.984-2.467-.063-3.122-2.057-1.155.624.344 3.771 3.621 5.858-1.186 1.995-5.432 1.153-2.872 4.02 2.56 1.932 3.465-.094 3.434 7.822 4.027 1.621 1.03 1.714-.655 3.241-6.65 11.935-.468 3.21.843 2.867 4.464 2.182 1.093 2.119-1.343 3.116-2.622.093-1.811 1.652 1.311 8.383-6.306 1.963 1.561 14.335-.936 2.338-4.028 1.184-.562 1.028 5.152 8.664-4.402-.437-12.488-3.583-15.859-7.386-6.743-2.057-12.238-.53-8.054 2.338Z" fill="url(#fill-0-render-6)" class="fills" id="fills-ad955eb8-96dc-80c6-8004-6325f8df6edd"/></g><g id="shape-ad955eb8-96dc-80c6-8004-6325f8df6ede"><defs><linearGradient id="fill-color-gradient-render-7-0" x1=".5" y1="0" x2=".5" y2="1"><stop offset="0" stop-color="#927c45" stop-opacity=".28"/><stop offset="1" stop-color="#927c45" stop-opacity="0"/></linearGradient><pattern patternUnits="userSpaceOnUse" x="759.387" y="458.595" width="186.031" height="342.141" id="fill-0-render-7"><rect width="186.031" height="342.141" style="fill: url(&quot;#fill-color-gradient-render-7-0&quot;);"/></pattern></defs><path d="m759.699 781.477-.312-.53.625-1.433 1.03-.499.437-1.433v-.343h-1.467l.874-1.216v-.903l.749-1.403 1.218-.529-.157-.53.281-.156 2.248-10.907.312-5.111 1.624-4.924.905-4.768-1.186-3.147h-6.587v-.904l5.837-.156.438-.374.312-1.402.593.53.156 1.246h1.779l.157-.374h-1.031l-.468-.498v-.717l.593-.187.312-1.215v-.717l-.593-.187v-.499l.593-.187.156.53h.438l.749-.53-.312-.529.156-1.933 1.654-2.835-.312-.873-.874.343-.156-2.462.593-.343v-1.402l.593-1.06-.312-.717 1.061-1.215v-1.246l-.593-.53.281-2.088 1.218-.904.156-2.462 1.467-1.932-1.467-.187-.156-.872h.749l.874-1.933 1.218-5.297.593-.873.156-2.275.749-1.433-.156-2.275-.905-.187-.437-.53v-1.745l.749-2.306 1.186-1.216 1.062.156.874-1.745-.156-.717-1.031-.155v-1.06l-.749-.53 1.78-3.365-.437-.873.156-1.402.905-1.06 1.186-4.394.593.343.313-.717-.313-1.215 1.187-2.306-.281-1.403-1.062-1.059v-1.06l1.062-1.059.437-2.462-.593-.343v-.904l.905-2.617.874-1.247-.437-.717.437-1.215-.125-2.992.593-1.246v-1.59l-.468-.342.625-1.777.593-5.64.749-.187.749-1.745.281-5.111.905-3.896 1.031-1.745-.874-.529.749-3.896-.156-2.805 1.342-1.246.156-.717.156-5.64.874-5.828-.156-5.267.625-1.246v-.53l-.625-.53v-.872l.313-.374-.157-1.215.906-.717-.156-1.06-.75-.53v-1.402l.906-2.649v-1.402l1.654-1.963v-.873l1.187-1.247 2.091.187 1.499-1.932 1.03-2.306.624-2.649-.468-1.589 1.062-1.246.593-6.514 1.186-2.835 1.061-12.341.594-2.306v-5.485l.281-2.462.624-1.402.718-9.006-.593-2.836h.749l.156-.343.437-4.238-.125-2.15-.749-1.403h.437l.312-.53.437.53.437-.187v-.529l-.437-.156.437-1.434-.593-.53-.437-1.589v-5.64l.749-.873-.593-1.06.874-1.059 1.343.343 3.309-3.179 1.623-.374 1.967.187 2.685-1.402.593-1.06.437-.374.468.187.437-.717h1.343l1.967.904 1.342 2.462h1.342l.75.717 2.684 1.059 1.624.156v.53l.749.904 4.058.187 3.872-1.091v.561l-1.78.685-.312-.342-1.186.872h-.594l-3.746-.343-2.247-.716-2.685-1.932-1.187.342.75.187.281.686.593.187-.125.717 3.122 1.589.437.873.624.187.874 1.059.312 1.247.594-.374v-1.745h.593l.312 1.589h.749l.281-1.06-.749-.716v-.717l.156-.343.905.187 1.187 1.745.468 3.366 1.03.343.593 1.433h1.936l.749-.53 1.655-.187-.437-1.246.593-.156 2.372 1.589.469 2.805 2.997-.873.125-.529-.438-.717-1.498-.156-.281-1.776-1.218.187-.874-.53 2.373-.717 4.776-3.178 1.062-.187.593-1.216.905-.187v-.717l1.031-.529v-.873l.749-.717.905-1.932 2.092-1.963 3.153-4.581 5.369-12.559.906-.343-.312-1.246 1.342-4.425.593-.343-.156-.717 1.218-3.365.749-.53-.312-.686 1.498-5.142-.156-.717 1.342-6.887.157-7.79-1.499-3.054 3.746-.53 2.154 6.326-1.592 11.624.999.249.468 3.896 1.187 3.178 2.091 2.275 2.841 1.589 1.187 1.621-.157 2.805-1.779 6.887v2.306l4.776 2.493 5.526 4.768 10.021 2.991 3.434 2.494.469 2.461-2.092 8.134.125 3.895 3.902 9.536 2.841 4.426 1.03 2.991.156 2.805-1.03 3.366-.312 3.708-7.93 12.559-.281 1.215.281 2.649 2.404 6.357-.312 1.247-1.186 1.589-5.089 3.709 1.218 3.178v1.403l-.469 2.461-.905 1.964-3.434 3.864-1.936.717-1.03-.53-2.716-4.581-1.498-1.434-1.343.187-1.342 1.403-.749 2.119-.281 6.357.874 2.119 2.56 1.932 1.779 2.493.156 3.865-.905 1.932-1.467 1.433-9.428 5.267-1.811 2.493-3.871 9.162-1.655 2.649-1.623 1.402h-2.404l-5.994-2.992-3.278-.872h-2.684l-2.997 1.215-1.499 1.59-2.092 3.708-.593 3.708.312 2.649 1.78 2.462 8.085 2.119 1.187 1.745-.437 2.307-3.309.716-2.529-.374-4.183-1.745h-4.028l-2.091.686-1.218 1.776.437 2.462 1.53 1.402 1.03.374 2.092 2.275v5.298l.905 3.334 1.499 1.434 2.528-.187 1.062.53 1.342 2.991 2.966 1.247 1.342 1.589-.281 4.207-1.654 5.454 1.061 3.365 3.278 1.06 1.655 1.247 1.623 4.207 2.404-.187.905-.686 2.092.873 1.342 3.178 1.936 2.275 2.248.717h8.366l8.835 2.805h1.499l3.277-1.216 2.248-1.932 3.559-6.513 3.465-1.06 1.187-1.776.905-4.768 1.623-1.402 5.838-2.805 3.903-6.357 3.121-1.216 1.936.873 1.498 1.402 4.059 7.573 1.779 1.247 6.275 2.461 1.343 1.403 2.841 4.799-6.869 7.76-1.873 3.864-6.462 6.232-10.583 7.698-13.424 6.825-21.634 8.164-4.09 3.085-4.995 9.349-2.373 8.82-2.528 16.236-4.683 12.964-1.093 7.884-2.466-.156-14.985 4.737h-3.871l-2.404-.53-3.746-4.924-3.715-2.119-1.967-3.864-2.685-2.992-1.779-1.246-2.248-.686h-12.862l-8.21-1.932-8.211-.53-5.244.686-6.432 2.462-3.871.187-2.403-.53-6.119-2.649-4.933-.872Z" fill="url(#fill-0-render-7)" class="fills" id="fills-ad955eb8-96dc-80c6-8004-6325f8df6ede"/></g><g id="shape-ad955eb8-96dc-80c6-8004-6325f8df6edf"><defs><linearGradient id="fill-color-gradient-render-8-0" x1=".5" y1="0" x2=".5" y2="1"><stop offset="0" stop-color="#927c45" stop-opacity=".28"/><stop offset="1" stop-color="#927c45" stop-opacity="0"/></linearGradient><pattern patternUnits="userSpaceOnUse" x="654.618" y="781.197" width="210.194" height="407.335" id="fill-0-render-8"><rect width="210.194" height="407.335" style="fill: url(&quot;#fill-color-gradient-render-8-0&quot;);"/></pattern></defs><path d="m654.618 1119.318 4.932-12.31.594-2.649 1.654-3.49v-.686l.593-.716.75-3.834.905-1.745.125-2.119.624-.156.125-.716.468-.156v-1.247l.281-.529h.469v-.873h.28l1.218-2.088.749-.343.125-1.059 4.496-6.638 3.871-9.474 3.746-9.785 6.587-22.687 4.402.717 2.529 1.932 3.59.686 9.584-.156 4.62 2.618 3.746.529 8.367-.529 4.495-1.247 3.715-3.49 7.181-8.757 3.59-2.088h2.685l2.997 1.215 2.684 4.55 2.092.873 2.997-1.216.593-1.059 1.655-1.029 3.59-.903 5.213.529 2.092-2.087.156-2.805-.749-2.088-2.248-2.306-5.963-2.618-2.841-17.171-.749-2.088-2.091-2.275-5.245-3.521-1.78-2.462-.437-2.431.437-3.521.75-2.088.156-5.454.749-4.892 4.62-5.61 3.59-6.482 1.655-4.051.125-5.422-1.499-4.207 1.062-3.335.312-8.258-.905-2.088-4.652-2.462-1.623-2.805-2.841-1.402-4.027-3.521-4.215-1.59-11.488-1.402-3.965-.125.905-2.399v-.873l-.468-.53.156-.903 1.655-3.833.749-.717-.156-1.402 1.342-2.462.156-2.088 1.624-2.462.312-2.462.749-1.745-.312-1.777 1.218-1.215v-2.805l1.03-4.581.905-1.402 1.499-4.051-.157-2.088.594-.873.749-2.462-.156-.529 1.686-4.394.124-2.618h-.468v-.53l1.062-1.776.312-4.02 1.623-3.179.312-1.745 1.343-2.992-.156-2.119.593.374.468-.187-.312-2.991.593-3.148.593-.53-.125-1.246 2.217-10.004v-.716l-.749-.53-.125-.873 1.935-1.059.156-.53 1.031-5.952.593-1.59v-2.119l.905-1.745 2.529-11.624v-2.088l.749-3.864h-.874v-.374l1.623-1.558.469-1.06.28-2.461-.28-2.12.874-3.521-1.031-.686.75-1.589.593-.374 1.186-3.147.468-.187.437-2.618 6.962-.28 4.933.872 6.119 2.649 2.403.53 3.871-.187 6.432-2.462 5.244-.686 8.211.53 8.21 1.932h12.862l2.248.686 1.779 1.246 2.685 2.992 1.967 3.864 3.715 2.119 3.746 4.924 2.404.53h3.871l14.985-4.737 2.466.156-1.124 8.165-3.746 3.646-13.986 6.264-3.59 4.518-5.713 10.72-.593 17.047 2.529 18.105-1.78 4.675-4.558 3.241-7.398 10.689-9.709 21.97-.937 7.386.25 7.323 7.336 10.969 2.903 6.077 4.09 18.013.656 8.102-1.717 6.607-4.371 8.258-.624 5.017 1.685 4.207 5.62 5.984 6.181 11.748 1.78 7.261-1.249 9.318-4.308 9.38.125 4.238 1.03 3.397-2.373 1.932 2.342 6.233-7.368 15.706 1.311 14.273 8.242 11.094 12.3 9.785 2.591 10.097-4.745 14.709-26.879 4.799-.469.717-13.829-.592-8.336-1.028-4.839.529-3.964 3.086-4.839 13.898-5.713 3.584-17.17 3.615-8.804 3.085-10.989 10.783-2.373 6.108h-1.217l-1.655 1.215-3.434 3.833-5.401 7.51-2.84 2.992-1.624 1.215-3.465.873-1.78-1.215-2.996-4.207-3.872-12.061-1.342-2.96-2.404-3.49-2.997-2.618-9.24-5.235-1.218-.187-3.434 3.833-1.655 1.246-2.216.343-5.089-.717-2.56.53.469 1.745 4.183 1.745 1.03 3.335 2.997 2.804.156 1.372-1.342 1.589-1.343.156-3.434-.873-1.061.374-.156 4.02-1.499 1.558-4.932.873-1.343-.187-3.278-2.618-3.277-.872-5.994-.343-2.529-1.932-.749-2.088v-1.558l1.186-1.745 2.529-1.746 4.058-1.745 1.499-1.402 1.03-1.932-.437-2.462-1.936-2.431-5.557-2.96-1.342-3.148v-2.462l1.498-2.804 1.936-1.029 1.342-.187 5.401 1.932 2.373.343 2.841-.156 1.498-1.246-.125-6.794 1.343-4.394-1.062-4.705.312-1.216 4.184-4.394.437-2.275-1.031-1.745-1.966-1.028-5.214 1.901-3.746-.343-3.278-4.02-2.685.343-1.498 1.402-2.092.873Z" fill="url(#fill-0-render-8)" class="fills" id="fills-ad955eb8-96dc-80c6-8004-6325f8df6edf"/></g><g id="shape-ad955eb8-96dc-80c6-8004-6325f8df6ee0"><defs><linearGradient id="fill-color-gradient-render-9-0" x1=".5" y1="0" x2=".5" y2="1"><stop offset="0" stop-color="#927c45" stop-opacity=".28"/><stop offset="1" stop-color="#927c45" stop-opacity="0"/></linearGradient><pattern patternUnits="userSpaceOnUse" x="687.21" y="918.626" width="82.573" height="123.718" id="fill-0-render-9"><rect width="82.573" height="123.718" style="fill: url(&quot;#fill-color-gradient-render-9-0&quot;);"/></pattern></defs><path d="m687.21 1036.018 1.186-4.643 1.187-2.774.468-4.051 1.186-1.558-.749-.53 1.061-3.521.875-1.403v-1.028l.624-1.402.749-.873.437-3.864 1.78-1.402v-1.59l-.593-.498 1.654-1.59h1.03l1.343-1.059 1.654-2.618 1.062-3.334.749-1.06.125-1.558-.281-.374.905-.343-.624-.872.468-.53-.312-.156.312-1.247 2.248-5.235.125-1.589.655-.343.406-1.06-.749-2.119v-1.745l1.186-.873.593.187.906-2.804 1.342-2.649-.749-1.402.156-1.029h.437l.312.873h.593l1.655-5.08 1.03-5.266 1.343-1.777.468-1.215-.156-.686.437-.374 1.498-5.765v-2.649l1.811-4.55-.312-1.932 1.654-.872-.156-1.403-1.061-.716.312-4.02.593-.53.905.343.281-.53 2.123-7.012 1.468-7.884 1.061-1.808 3.965.125 11.488 1.402 4.215 1.59 4.027 3.521 2.841 1.402 1.623 2.805 4.652 2.462.905 2.088-.312 8.258-1.062 3.335 1.499 4.207-.125 5.422-1.655 4.051-3.59 6.482-4.62 5.61-.749 4.892-.156 5.454-.75 2.088-.437 3.521.437 2.431 1.78 2.462 5.245 3.521 2.091 2.275.749 2.088 2.841 17.171 5.963 2.618 2.248 2.306.749 2.088-.156 2.805-2.092 2.087-5.213-.529-3.59.903-1.655 1.029-.593 1.059-2.997 1.216-2.092-.873-2.684-4.55-2.997-1.215h-2.685l-3.59 2.088-7.181 8.757-3.715 3.49-4.495 1.247-8.367.529-3.746-.529-4.62-2.618-9.584.156-3.59-.686-2.529-1.932Z" fill="url(#fill-0-render-9)" class="fills" id="fills-ad955eb8-96dc-80c6-8004-6325f8df6ee0"/></g><g id="shape-ad955eb8-96dc-80c6-8004-6325f8df6ee1"><defs><linearGradient id="fill-color-gradient-render-10-0" x1=".5" y1="0" x2=".5" y2="1"><stop offset="0" stop-color="#927c45" stop-opacity=".28"/><stop offset="1" stop-color="#927c45" stop-opacity="0"/></linearGradient><pattern patternUnits="userSpaceOnUse" x="437.93" y="1116.7" width="649.814" height="1480.565" id="fill-0-render-10"><rect width="649.814" height="1480.565" style="fill: url(&quot;#fill-color-gradient-render-10-0&quot;);"/></pattern></defs><path d="m1087.681 1372.955-.218 32.067-1.904 12.59-8.867 25.242-20.354 36.492-6.212 12.59-5.776 10.191-2.778 12.59 6.15 13.337 24.007 32.254 4.277 9.162 2.684 13.027.562 9.754-3.652 15.986-3.309 11.437-20.605 31.693-2.185 12.715 1.28 10.159 4.402 12.154-.031 12.839-9.335 8.57-20.229 13.244-14.361 31.662-.187 11.281 2.716 10.253-2.747 12.559-10.302 3.708-8.024 9.692-4.745 12.964-.062 25.367-7.586 17.669-13.206 24.058-2.841 13.805-7.992 7.417-15.89 30.603-1.28 10.221-12.175 56.343-3.715 11.094-7.43 10.658-2.123 8.383 18.606 34.934 2.841 9.661-1.717 7.385-11.957 13.214-3.434 10.657 1.842 12.341-10.239 22.687 16.858 74.449-41.646 59.646-11.207 44.439 1.685 48.241-15.859 31.661-2.403 11.593 1.561 9.193-1.561 12.434-9.179 38.113v20.755l1.436 12.964.125 11.998-7.055 8.632-9.615 7.043-8.18 9.473-5.775 11.562-5.245 14.709-1.061-.343-2.248.156-1.342-1.371h-1.187l-.437 1.714-.624.187-.281 1.682-.749.873-.156.841h-1.343l-.281.842-1.373.53-.594 1.184-.437 2.555-1.342 2.244h-1.186v.499l-1.655 1.869-1.935 1.185-.469 1.714-2.091 2.056v2.556l-1.343.841-1.935 2.743-1.062.841v1.558l-2.372 2.711-2.248 1.029-13.58-15.707-7.087-13.369-2.56-10.283-2.154-17.919 5.058-16.766 2.528-16.797-2.435-11.562-9.646-16.797.374-29.636-55.038-154.227 1.093-9.318-17.42-48.084-46.36-130.855-10.957-41.135-37.556-24.526-1.374-19.04 11.145-31.351-23.351-27.33 1.561-33.874-15.578-64.695-47.39-99.38-30.719-89.781-44.393-147.09 24.226-18.137 23.944-20.63 5.932-10.876-.125-16.86-1.343-18.043 4.714-15.706 17.92-22.999 54.008-52.229 15.672-3.74 4.776-8.445-.062-12.06-7.337-10.814-23.382-21.814 12.987-21.098 2.247-1.402 1.062-1.558-.156-.343-.906-.187.156-1.558-.468-.187v-.499l1.811-2.119v.717l-1.343 1.558 1.499.343.281.53.468-.156 8.211-13.619 1.061-3.677 1.936-1.371 2.997-3.864 1.186-2.431-.156-.873 1.654-2.087.874-2.275.75-.53.312.717h.593l9.116-16.236 1.654-2.275 4.184-8.383 2.372-2.961 1.218-3.49 5.963-10.315 5.4-11.53 2.685-4.519 2.685-6.482.905-1.558.437-.187-.156-.53 1.499-2.774 1.498-4.207 1.936-3.49 2.248-5.235-1.624-1.745-.905-2.992.156-2.431 1.467-3.677h.469v1.215l-.594.374-.905 2.088v2.961l1.936 3.334h1.217l.281-.872-1.498-.873v-.53l.593-.343-.125-1.745.437-.529.156-1.403v-.53l-.593-.342v-.717h1.342l.593.717h3.434l.313-.873 1.186-1.215.281-.717-.749-.343-.125-.872.125-4.55.468-.343.156.686h.437v-.343l1.186-.686 4.465-11.219 3.465-7.416h2.029l2.092-.873 1.498-1.402 2.685-.343 3.278 4.02 3.746.343 5.214-1.901 1.966 1.028 1.031 1.745-.437 2.275-4.184 4.394-.312 1.216 1.062 4.705-1.343 4.394.125 6.794-1.498 1.246-2.841.156-2.373-.343-5.401-1.932-1.342.187-1.936 1.029-1.498 2.804v2.462l1.342 3.148 5.557 2.96 1.936 2.431.437 2.462-1.03 1.932-1.499 1.402-4.058 1.745-2.529 1.746-1.186 1.745v1.558l.749 2.088 2.529 1.932 5.994.343 3.277.872 3.278 2.618 1.343.187 4.932-.873 1.499-1.558.156-4.02 1.061-.374 3.434.873 1.343-.156 1.342-1.589-.156-1.372-2.997-2.804-1.03-3.335-4.183-1.745-.469-1.745 2.56-.53 5.089.717 2.216-.343 1.655-1.246 3.434-3.833 1.218.187 9.24 5.235 2.997 2.618 2.404 3.49 1.342 2.96 3.872 12.061 2.996 4.207 1.78 1.215 3.465-.873 1.624-1.215 2.84-2.992 5.401-7.51 3.434-3.833 1.655-1.215h2.06l2.997 2.96 3.434 5.08 2.248 5.048 2.404 7.853 1.186 1.59 1.811 1.028 4.776-1.028 2.685.342 1.936.686 2.684 3.335v2.274l-2.84 5.921.312 2.275 2.404 6.451.281 2.618-.281 4.02-1.499 2.96-.468 2.462.749 9.412-.437 5.079 1.342 4.363v4.332l-.905 4.892 1.342 3.148 8.242 4.706 7.774 5.235 7.305 4.02 2.404 2.088 2.996 4.176 8.367 2.088 1.78.872 11.706 9.069-8.335 12.403-4.745 23.59 2.341 25.554-1.998 10.907-10.77 20.412-11.926 15.364-10.458 20.973 1.467 12.465 6.026 9.754 8.647 7.136 13.362 3.584 24.444-3.21 22.54-5.609 22.009 1.839 31.031 1.994 11.363-5.89 7.462 1.714 11.644-1.994 10.084-.873 12.924-2.431 7.899-4.736 15.702-16.05 13.393-15.051 17.42-7.729 17.888-13.026 19.012-16.766 8.492-2.992 35.558.53Z" fill="url(#fill-0-render-10)" class="fills" id="fills-ad955eb8-96dc-80c6-8004-6325f8df6ee1"/></g><g id="shape-ad955eb8-96dc-80c6-8004-6325f8df6ee2"><defs><linearGradient id="fill-color-gradient-render-11-0" x1=".5" y1="0" x2=".5" y2="1"><stop offset="0" stop-color="#927c45" stop-opacity=".28"/><stop offset="1" stop-color="#927c45" stop-opacity="0"/></linearGradient><pattern patternUnits="userSpaceOnUse" x="737.69" y="1126.205" width="219.185" height="164.043" id="fill-0-render-11"><rect width="219.185" height="164.043" style="fill: url(&quot;#fill-color-gradient-render-11-0&quot;);"/></pattern></defs><path d="m949.664 1205.484-.749 1.184-27.129.686-22.914 9.38-28.128 27.766-25.225 12.092-8.928 7.79-16.421 17.701-4.902 8.165-11.706-9.069-1.78-.872-8.367-2.088-2.996-4.176-2.404-2.088-7.305-4.02-7.774-5.235-8.242-4.706-1.342-3.148.905-4.892v-4.332l-1.342-4.363.437-5.079-.749-9.412.468-2.462 1.499-2.96.281-4.02-.281-2.618-2.404-6.451-.312-2.275 2.84-5.921v-2.274l-2.684-3.335-1.936-.686-2.685-.342-4.776 1.028-1.811-1.028-1.186-1.59-2.404-7.853-2.248-5.048-3.434-5.08-2.997-2.96h-.843l2.373-6.108 10.989-10.783 8.804-3.085 17.17-3.615 5.713-3.584 4.839-13.898 3.964-3.086 4.839-.529 8.336 1.028 13.829.592-6.15 9.069 4.496 16.859 10.396 4.456 14.86 2.119 13.705-4.892 10.114-10.97 10.24-6.045 11.863 10.938 10.802 5.173 23.258 9.349 24.943-.125 9.803 10.222-1.592 22.749Z" fill="url(#fill-0-render-11)" class="fills" id="fills-ad955eb8-96dc-80c6-8004-6325f8df6ee2"/></g><g id="shape-ad955eb8-96dc-80c6-8004-6325f8df6ee3"><defs><linearGradient id="fill-color-gradient-render-12-0" x1=".5" y1="0" x2=".5" y2="1"><stop offset="0" stop-color="#927c45" stop-opacity=".28"/><stop offset="1" stop-color="#927c45" stop-opacity="0"/></linearGradient><pattern patternUnits="userSpaceOnUse" x="416.951" y="691.727" width="724.332" height="836.109" id="fill-0-render-12"><rect width="724.332" height="836.109" style="fill: url(&quot;#fill-color-gradient-render-12-0&quot;);"/></pattern></defs><path d="m587.592 1328.018.062 12.06-4.776 8.476-15.578 3.709-49.794 48.116-4.308 4.144-17.951 23.03-2.123 7.043-2.591 8.663 1.343 18.044.125 16.859-5.932 10.876-19.886 17.14-4.09 3.521-24.225 18.137-20.917-69.338 1.186-.904 15.984-15.612 18.388-19.664 5.838-5.205 4.932-4.518 10.022-10.44 7.929-8.695 12.706-15.301 3.153-4.363 4.183-4.861 11.801-13.057 24.507-31.569 13.486-19.446 5.807-9.349 23.414 21.69 7.305 10.814Zm553.317-424.849-1.498-5.017-.531-10.128-2.092-9.037 1.936-13.993-3.684-9.13.125-4.488 2.622-7.354-4.214-11.281.405-5.08 1.718-4.425 1.529-9.474-1.311-3.708-3.965-4.924 1.03-11.344-12.487-3.583-15.859-7.386-6.774-2.057-12.238-.53-8.054 2.338-6.806-1.091-3.559-3.147.156-3.21-3.84-4.924-3.122-9.162.656-12.652-1.686-13.588-8.741-14.771-8.71-6.482-4.558-1.122-10.364-.156-26.318 4.831-6.275-.031-4.277-1.122-8.46-4.176-8.273-6.046-9.584-9.941-7.461-4.051-5.213.81-2.841 1.434-9.897 11.156-1.873 3.864-6.431 6.233-10.614 7.697-13.393 6.825-21.634 8.165-4.09 3.085-3.215 6.014-1.78 3.366-2.372 8.819-2.498 16.236-4.683 12.964-2.216 16.049-3.778 3.646-13.986 6.264-3.59 4.519-5.713 10.72-.593 17.046 2.529 18.106-1.78 4.706-1.123.81-3.403 2.431-7.399 10.689-9.74 21.97-.906 7.386.25 7.323 7.336 10.969 2.904 6.077 4.089 18.012.656 8.103-1.717 6.607-4.371 8.258-.312 2.524-.312 2.493 1.686 4.176 5.619 5.983.749 1.403 5.432 10.346 1.78 7.261-1.249 9.286-4.339 9.381.125 4.238 1.03 3.397-2.373 1.932 2.373 6.232-7.368 15.738 1.311 14.273 8.242 11.094 12.3 9.785 2.591 10.097-4.776 14.709-26.848 4.799-6.65 9.816 4.496 16.86 10.396 4.456 14.86 2.15 13.705-4.923 10.114-10.97 7.337-4.332 2.934-1.714 11.832 10.939 10.833 5.173 23.227 9.349 24.974-.125 9.803 10.222-1.623 22.749-5.62 8.757-.749 1.153-27.129.716-22.945 9.349-23.258 22.968-4.87 4.799-25.225 12.091-8.928 7.791-16.421 17.701-4.902 8.164-8.335 12.403-4.745 23.56 2.341 25.554-1.998 10.907-10.77 20.412-11.926 15.363-10.458 20.973 1.467 12.465 6.057 9.754 8.616 7.137 13.362 3.552 24.413-3.209 22.571-5.61 21.977 1.839 31.032 1.994 11.363-5.89 7.461 1.714 11.645-1.994 10.052-.841 12.956-2.431 7.898-4.737 15.703-16.049 13.393-15.052 17.42-7.728 17.857-13.027 5.213-4.581 13.83-12.184 8.492-2.992 35.558.499.374-25.991 1.093-28.015 11.363-38.923 11.676-36.679 4.964-15.613.624-1.122 13.018-23.31-6.649-36.742 4.245-11.935-5.588-8.944 5.245-10.346-9.365-5.952-5.245-26.52 9.709-9.349 3.403-22.5-8.991-19.757 5.026-7.293-.874-4.3-5.901-6.794-1.186-27.174 1.53-3.054 2.903-5.796 1.748-11.188 7.586-10.253 2.061-7.011 1.53-16.829 3.465-15.768 4.651-9.162 1.312-5.391-.375-7.293Z" fill="url(#fill-0-render-12)" class="fills" id="fills-ad955eb8-96dc-80c6-8004-6325f8df6ee3"/></g></g><g id="shape-72a435ee-d5e4-80c8-8004-635d72a2f8fe"><g id="shape-72a435ee-d5e4-80c8-8004-635d69f2c2e5"><ellipse cx="616.458" cy="1497.226" rx="7.395" ry="7.39" style="fill: rgb(95, 95, 95); fill-opacity: 1;" class="fills" id="fills-72a435ee-d5e4-80c8-8004-635d69f2c2e5"/></g><g id="shape-72a435ee-d5e4-80c8-8004-635d5cce521c"><ellipse cx="1137.084" cy="484.514" rx="7.395" ry="7.39" style="fill: rgb(95, 95, 95); fill-opacity: 1;" class="fills" id="fills-72a435ee-d5e4-80c8-8004-635d5cce521c"/></g><g id="shape-72a435ee-d5e4-80c8-8004-635d5adf63ca"><ellipse cx="937.679" cy="497.001" rx="7.395" ry="7.39" style="fill: rgb(95, 95, 95); fill-opacity: 1;" class="fills" id="fills-72a435ee-d5e4-80c8-8004-635d5adf63ca"/></g><g id="shape-72a435ee-d5e4-80c8-8004-635d56a7d216"><ellipse cx="670.17" cy="1519.133" rx="7.395" ry="7.39" style="fill: rgb(95, 95, 95); fill-opacity: 1;" class="fills" id="fills-72a435ee-d5e4-80c8-8004-635d56a7d216"/></g><g id="shape-72a435ee-d5e4-80c8-8004-635d5491bf75"><ellipse cx="728.276" cy="1499.414" rx="7.395" ry="7.39" style="fill: rgb(95, 95, 95); fill-opacity: 1;" class="fills" id="fills-72a435ee-d5e4-80c8-8004-635d5491bf75"/></g></g><g id="shape-72a435ee-d5e4-80c8-8004-635d7eecdf8f"><g id="shape-ab31e8b4-a6a0-8037-8004-636f9f08c5d7"><defs><filter id="filter-render-20" x="-.299" y="-1" width="1.599" height="3.089" filterUnits="objectBoundingBox" color-interpolation-filters="sRGB"><feFlood flood-opacity="0" result="BackgroundImageFix"/><feColorMatrix in="SourceAlpha" values="0 0 0 0 0 0 0 0 0 0 0 0 0 0 0 0 0 0 127 0"/><feOffset dy="4"/><feGaussianBlur stdDeviation="20"/><feColorMatrix values="0 0 0 0 0 0 0 0 0 0 0 0 0 0 0 0 0 0 0.2 0"/><feBlend in2="BackgroundImageFix" result="filter_ab31e8b4-a6a0-8037-8004-636f7887d04f"/><feBlend in="SourceGraphic" in2="filter_ab31e8b4-a6a0-8037-8004-636f7887d04f" result="shape"/></filter><filter id="filter-shadow-render-20" x="-.299" y="-1" width="1.599" height="3.089" filterUnits="objectBoundingBox" color-interpolation-filters="sRGB"><feFlood flood-opacity="0" result="BackgroundImageFix"/><feColorMatrix in="SourceAlpha" values="0 0 0 0 0 0 0 0 0 0 0 0 0 0 0 0 0 0 127 0"/><feOffset dy="4"/><feGaussianBlur stdDeviation="20"/><feColorMatrix values="0 0 0 0 0 0 0 0 0 0 0 0 0 0 0 0 0 0 0.2 0"/><feBlend in2="BackgroundImageFix" result="filter_ab31e8b4-a6a0-8037-8004-636f7887d04f"/><feBlend in="SourceGraphic" in2="filter_ab31e8b4-a6a0-8037-8004-636f7887d04f" result="shape"/></filter></defs><rect width="451" height="135" x="49" style="fill: rgb(255, 250, 239); fill-opacity: 1;" ry="20" rx="20" filter="url(#filter-render-20)" y="1956" class="fills" id="fills-ab31e8b4-a6a0-8037-8004-636f9f08c5d7"/></g><g class="text-container" id="shape-ab31e8b4-a6a0-8037-8004-636fdb799c37"><defs><pattern patternUnits="userSpaceOnUse" x="87" y="2029" width="362.719" height="70" id="fill-0-render-21-0"><rect width="362.719" height="70" style="fill: rgb(69, 69, 69); fill-opacity: 1;"/></pattern></defs><text x="449.719" y="2092.333" dominant-baseline="ideographic" textLength="362.719" lengthAdjust="spacingAndGlyphs" style="text-transform: none; font-family: Heebo; letter-spacing: normal; font-style: normal; font-weight: 600; white-space: pre; font-size: 48px; text-decoration: none solid rgb(69, 69, 69); direction: rtl; fill: rgb(69, 69, 69); fill-opacity: 1;" class="fills" id="fills-ab31e8b4-a6a0-8037-8004-636fdb799c37">פעילות למשפחות</text></g><g id="shape-72a435ee-d5e4-80c8-8004-635aba06ca49"><path d="m685.048 1467.591-260.603-3.761" class="fills" id="fills-72a435ee-d5e4-80c8-8004-635aba06ca49"/><g id="strokes-72a435ee-d5e4-80c8-8004-635aba06ca49" class="strokes"><g class="stroke-shape"><defs><marker refX="3" fill-opacity="1" orient="auto-start-reverse" id="marker-render-22-circle-marker" viewBox="0 0 6 6" fill="#5f5f5f" refY="3" markerWidth="4" markerHeight="4"><circle cx="3" cy="3" r="3"/></marker></defs><path d="m685.048 1467.591-260.603-3.761" style="fill: none; stroke-width: 4; stroke: rgb(95, 95, 95); stroke-opacity: 1; marker-start: url(&quot;#marker-render-22-circle-marker&quot;);"/></g></g></g><g id="shape-72a435ee-d5e4-80c8-8004-635b427aaf4d"><defs><filter id="filter-render-23" x="-.14" y="-.079" width="1.279" height="1.174" filterUnits="objectBoundingBox" color-interpolation-filters="sRGB"><feFlood flood-opacity="0" result="BackgroundImageFix"/><feColorMatrix in="SourceAlpha" values="0 0 0 0 0 0 0 0 0 0 0 0 0 0 0 0 0 0 127 0"/><feOffset dy="4"/><feGaussianBlur stdDeviation="8"/><feColorMatrix values="0 0 0 0 0 0 0 0 0 0 0 0 0 0 0 0 0 0 0.2 0"/><feBlend in2="BackgroundImageFix" result="filter_72a435ee-d5e4-80c8-8004-635ce15de134"/><feBlend in="SourceGraphic" in2="filter_72a435ee-d5e4-80c8-8004-635ce15de134" result="shape"/></filter><filter id="filter-shadow-render-23" x="-.14" y="-.079" width="1.279" height="1.174" filterUnits="objectBoundingBox" color-interpolation-filters="sRGB"><feFlood flood-opacity="0" result="BackgroundImageFix"/><feColorMatrix in="SourceAlpha" values="0 0 0 0 0 0 0 0 0 0 0 0 0 0 0 0 0 0 127 0"/><feOffset dy="4"/><feGaussianBlur stdDeviation="8"/><feColorMatrix values="0 0 0 0 0 0 0 0 0 0 0 0 0 0 0 0 0 0 0.2 0"/><feBlend in2="BackgroundImageFix" result="filter_72a435ee-d5e4-80c8-8004-635ce15de134"/><feBlend in="SourceGraphic" in2="filter_72a435ee-d5e4-80c8-8004-635ce15de134" result="shape"/></filter><pattern patternUnits="userSpaceOnUse" x="47.882" y="1225.268" width="451.226" height="795.207" id="fill-0-render-23"><image id="fill-image-render-23-0" href="https://design.penpot.app/assets/by-file-media-id/e6f09089-87c8-80a6-8004-635b42761c2b" preserveAspectRatio="xMidYMid slice" width="451.226" height="795.207" opacity="1"/></pattern></defs><rect width="451.226" height="795.207" x="47.882" ry="20" fill="url(#fill-0-render-23)" rx="20" filter="url(#filter-render-23)" y="1225.268" class="fills" id="fills-72a435ee-d5e4-80c8-8004-635b427aaf4d"/></g></g><g id="shape-72a435ee-d5e4-80c8-8004-635d7a6fa803"><g id="shape-ab31e8b4-a6a0-8037-8004-636edaaaf595"><defs><filter id="filter-render-25" x="-.247" y="-1" width="1.495" height="3.089" filterUnits="objectBoundingBox" color-interpolation-filters="sRGB"><feFlood flood-opacity="0" result="BackgroundImageFix"/><feColorMatrix in="SourceAlpha" values="0 0 0 0 0 0 0 0 0 0 0 0 0 0 0 0 0 0 127 0"/><feOffset dy="4"/><feGaussianBlur stdDeviation="20"/><feColorMatrix values="0 0 0 0 0 0 0 0 0 0 0 0 0 0 0 0 0 0 0.2 0"/><feBlend in2="BackgroundImageFix" result="filter_ab31e8b4-a6a0-8037-8004-636f7887d04f"/><feBlend in="SourceGraphic" in2="filter_ab31e8b4-a6a0-8037-8004-636f7887d04f" result="shape"/></filter><filter id="filter-shadow-render-25" x="-.247" y="-1" width="1.495" height="3.089" filterUnits="objectBoundingBox" color-interpolation-filters="sRGB"><feFlood flood-opacity="0" result="BackgroundImageFix"/><feColorMatrix in="SourceAlpha" values="0 0 0 0 0 0 0 0 0 0 0 0 0 0 0 0 0 0 127 0"/><feOffset dy="4"/><feGaussianBlur stdDeviation="20"/><feColorMatrix values="0 0 0 0 0 0 0 0 0 0 0 0 0 0 0 0 0 0 0.2 0"/><feBlend in2="BackgroundImageFix" result="filter_ab31e8b4-a6a0-8037-8004-636f7887d04f"/><feBlend in="SourceGraphic" in2="filter_ab31e8b4-a6a0-8037-8004-636f7887d04f" result="shape"/></filter></defs><rect width="546" height="135" x="248" style="fill: rgb(255, 250, 239); fill-opacity: 1;" ry="20" rx="20" filter="url(#filter-render-25)" y="770" class="fills" id="fills-ab31e8b4-a6a0-8037-8004-636edaaaf595"/></g><g class="text-container" id="shape-ab31e8b4-a6a0-8037-8004-636f3860af7c"><defs><pattern patternUnits="userSpaceOnUse" x="307" y="837" width="425.063" height="70" id="fill-0-render-26-0"><rect width="425.063" height="70" style="fill: rgb(69, 69, 69); fill-opacity: 1;"/></pattern></defs><text x="732.063" y="900.333" dominant-baseline="ideographic" textLength="425.063" lengthAdjust="spacingAndGlyphs" style="text-transform: none; font-family: Heebo; letter-spacing: normal; font-style: normal; font-weight: 600; white-space: pre; font-size: 48px; text-decoration: none solid rgb(69, 69, 69); direction: rtl; fill: rgb(69, 69, 69); fill-opacity: 1;" class="fills" id="fills-ab31e8b4-a6a0-8037-8004-636f3860af7c">פעילות לילדים בצפון</text></g><g id="shape-72a435ee-d5e4-80c8-8004-635bd1a7ebf4"><path d="M1038.168 501.387 502.941 625.165" class="fills" id="fills-72a435ee-d5e4-80c8-8004-635bd1a7ebf4"/><g id="strokes-72a435ee-d5e4-80c8-8004-635bd1a7ebf4" class="strokes"><g class="stroke-shape"><defs><marker refX="3" fill-opacity="1" orient="auto-start-reverse" id="marker-render-27-circle-marker" viewBox="0 0 6 6" fill="#5f5f5f" refY="3" markerWidth="4" markerHeight="4"><circle cx="3" cy="3" r="3"/></marker></defs><path d="M1038.168 501.387 502.941 625.165" style="fill: none; stroke-width: 4; stroke: rgb(95, 95, 95); stroke-opacity: 1; marker-start: url(&quot;#marker-render-27-circle-marker&quot;);"/></g></g></g><g id="shape-72a435ee-d5e4-80c8-8004-635b43b61ac0"><defs><filter id="filter-render-28" x="-.1" y="-.134" width="1.199" height="1.294" filterUnits="objectBoundingBox" color-interpolation-filters="sRGB"><feFlood flood-opacity="0" result="BackgroundImageFix"/><feColorMatrix in="SourceAlpha" values="0 0 0 0 0 0 0 0 0 0 0 0 0 0 0 0 0 0 127 0"/><feOffset dy="4"/><feGaussianBlur stdDeviation="8"/><feColorMatrix values="0 0 0 0 0 0 0 0 0 0 0 0 0 0 0 0 0 0 0.2 0"/><feBlend in2="BackgroundImageFix" result="filter_72a435ee-d5e4-80c8-8004-635c34c26a9d"/><feBlend in="SourceGraphic" in2="filter_72a435ee-d5e4-80c8-8004-635c34c26a9d" result="shape"/></filter><filter id="filter-shadow-render-28" x="-.1" y="-.134" width="1.199" height="1.294" filterUnits="objectBoundingBox" color-interpolation-filters="sRGB"><feFlood flood-opacity="0" result="BackgroundImageFix"/><feColorMatrix in="SourceAlpha" values="0 0 0 0 0 0 0 0 0 0 0 0 0 0 0 0 0 0 127 0"/><feOffset dy="4"/><feGaussianBlur stdDeviation="8"/><feColorMatrix values="0 0 0 0 0 0 0 0 0 0 0 0 0 0 0 0 0 0 0.2 0"/><feBlend in2="BackgroundImageFix" result="filter_72a435ee-d5e4-80c8-8004-635c34c26a9d"/><feBlend in="SourceGraphic" in2="filter_72a435ee-d5e4-80c8-8004-635c34c26a9d" result="shape"/></filter><pattern patternUnits="userSpaceOnUse" x="205" y="355" width="632" height="469" id="fill-0-render-28"><image id="fill-image-render-28-0" href="https://design.penpot.app/assets/by-file-media-id/ee63301e-1fa7-81b1-8004-635b43a99ec5" preserveAspectRatio="xMidYMid slice" width="632" height="469" opacity="1"/></pattern></defs><path d="M205 375c0-11.038 8.962-20 20-20h592c11.038 0 20 8.962 20 20v429c0 11.038-8.962 20-20 20H225c-11.038 0-20-8.962-20-20V375Z" filter="url(#filter-render-28)" fill="url(#fill-0-render-28)" class="fills" id="fills-72a435ee-d5e4-80c8-8004-635b43b61ac0"/></g></g></g></svg>