<svg width="919.776" xmlns="http://www.w3.org/2000/svg" height="2470.01" fill="none"><g style="fill: rgb(0, 0, 0);"><defs><linearGradient id="a" x1=".5" y1="0" x2=".5" y2="1"><stop offset="0" stop-color="#927c45" stop-opacity=".28"/><stop offset="1" stop-color="#927c45" stop-opacity="0"/></linearGradient><pattern patternUnits="userSpaceOnUse" x="747.057" y=".93" width="171.92" height="476.361" id="b"><rect width="171.92" height="476.361" style="fill: url(&quot;#a&quot;);"/></pattern></defs><path d="m907.302 348.65-9.74 16.984-7.898 17.326-8.742 9.349-13.205 23.653-16.796 19.477-.499-2.119-3.403-1.932-11.738 4.83-5.588.686-2.685 2.275-2.092 4.737-2.185 8.632-12.269 1.683-7.742 7.822-8.554 6.045-5.338 1.621-3.84 2.493-13.33.935-6.431 4.144-.281-3.988-1.53-1.683-10.302-4.644-3.903-2.773.157-1.247 10.208-10.346 6.025-12.59 1.655-11.156.968-23.123 3.777-14.367 1.03-9.598-1.467-10.128-2.341-6.046-6.993-13.68-4.746-5.08-2.247-3.864-4.028 1.745-2.466-1.371-1.124-2.711.156-3.304 3.122-6.887 1.093-5.453 2.373-32.659-.906-14.741-6.212-11.655-.188-2.991 8.835-8.819 5.557-10.596 2.529-2.929 5.775-1.745 1.561 1.807.187-16.579 1.468-13.961 8.023-21.378 1.998-7.76.031-4.3-2.591-11.125-.968-8.508.375-13.93 2.622-10.003 4.621-10.658-.5-1.652-3.091-1.807-6.774-.904-3.216.405-7.055 3.771-4.027 1.028-3.996-.966-4.496-4.207 2.03-5.079 2.528-3.304 15.61-7.323 16.452-9.848 5.557-5.328 7.992-12.746 4.464-4.051 3.34-1.309 13.518 1.153 8.179-1.403 10.802-4.487 9.99-8.134 3.153-4.3 1.686-5.049 2.497-16.298 4.62-7.355 8.18-5.952L904.149.93l2.779 2.151.749 4.581-1.936 8.164-5.619 9.287-10.708 12.185-4.589 11.904-1.655 11.562 2.591 25.959-.811 4.363-6.182 10.533 3.996 4.799 7.93 6.762 3.496 4.862 1.78 3.085 3.621 12.995.687 7.51-1.061 5.08-2.03 5.204-4.807 5.236-1.717 3.428 1.03 6.918 4.464 1.589 7.368.779 4.089 1.901 11.364 16.392-1.28 16.735-8.616 7.604-.999 2.648 1.217 3.491 6.088 6.887.624 2.742-.78 1.558-2.872 1.714-6.057.717-10.708-2.836-2.279 1.839-1.28 3.334 2.716 11.157-1.592 20.069 2.81 9.131 4.62 42.413 9.366 12.964 1.842 4.456.031 3.521-2.466 6.794Z" fill="url(#b)" class="fills"/><defs><linearGradient id="c" x1=".5" y1="0" x2=".5" y2="1"><stop offset="0" stop-color="#927c45" stop-opacity=".28"/><stop offset="1" stop-color="#927c45" stop-opacity="0"/></linearGradient><pattern patternUnits="userSpaceOnUse" x="428.472" y="98.16" width="358.607" height="567.825" id="d"><rect width="358.607" height="567.825" style="fill: url(&quot;#c&quot;);"/></pattern></defs><path d="m654.775 653.239-3.559-3.147.157-3.21-3.809-4.924-3.122-9.162.656-12.652-1.686-13.587-8.741-14.772-8.71-6.482-4.558-1.122-10.334-.187-26.317 4.831-6.275-.032-4.277-1.121-8.46-4.176-8.242-6.046-9.615-9.941-7.43-4.051-5.213.779-2.872 1.433-2.997 3.397-2.841-4.799-1.343-1.402-6.275-2.462-1.779-1.247-4.059-7.572-1.498-1.403-1.936-.872-3.121 1.215-3.903 6.357-5.838 2.805-1.623 1.402-.905 4.768-1.187 1.777-3.465 1.059-3.559 6.513-2.248 1.932-3.277 1.216h-1.499l-8.835-2.805h-8.366l-2.248-.717-1.936-2.275-1.342-3.178-2.092-.873-.905.686-2.404.187-1.623-4.207-1.655-1.247-3.278-1.059-1.061-3.366 1.654-5.454.281-4.207-1.342-1.589-2.966-1.246-1.342-2.992-1.062-.53-2.528.187-1.499-1.433-.905-3.335v-5.298l-2.092-2.275-1.03-.373-1.53-1.403-.437-2.462 1.218-1.776 2.091-.686h4.028l4.183 1.746 2.529.373 3.309-.716.437-2.306-1.187-1.745-8.085-2.12-1.78-2.461-.312-2.649.593-3.709 2.092-3.708 1.499-1.59 2.997-1.215h2.684l3.278.873 5.994 2.991h2.404l1.623-1.402 1.655-2.649 3.871-9.162 1.811-2.493 9.428-5.267 1.467-1.433.905-1.932-.156-3.864-1.779-2.493-2.56-1.933-.874-2.119.281-6.357.749-2.119 1.342-1.402 1.343-.187 1.498 1.433 2.716 4.581 1.03.53 1.936-.717 3.434-3.864.905-1.963.469-2.462v-1.403l-1.218-3.178 5.089-3.709 1.186-1.589.312-1.247-2.404-6.357-.281-2.649.281-1.215 7.93-12.559.312-3.708 1.03-3.366-.156-2.805-1.03-2.991-2.841-4.425-3.902-9.536-.125-3.896 2.092-8.133-.469-2.462-3.434-2.493-10.021-2.992-5.526-4.768-4.776-2.493v-2.306l1.779-6.887.157-2.805-1.187-1.62-2.841-1.59-2.091-2.275-1.187-3.178-.468-3.896-.999-.249 1.592-11.624-2.154-6.326-3.746.53-1.03-1.527-1.218-.904-1.779-.156-.593.53v1.402l-1.062-.342-1.342.155v-1.402l2.404-6.357.281-4.612 2.091-8.664.156-5.142.469-1.059-.156-2.119.281-.187v-1.777l.624-2.119-.156-.872 1.342-3.366v-1.589l.906-.374v-4.768l.593-.53.437-2.649 2.091-3.895-.156-2.493-.437-.873.437-.374v-2.306l.75-1.402-.125-1.777.874-1.932-.156-.529.749-.374-.281-1.777 1.03-2.119.468-2.649.75-1.433.281-2.649 1.498-2.649-.593-.343v-1.433l1.499-1.247-.313-.343.469-1.433-.313-.873 1.062-1.589-.312-1.776h.437l-.125-1.932.718-.561.156-4.052.593-1.246.312-5.859.593-1.059v-1.932l-.437-.561v-6.046l24.007-.343 16.952-1.433 19.075 3.303 1.873-.81 3.09-3.335 6.213-2.025 19.917-.655 20.729-2.898 10.646 2.524 9.053 17.171 5.058 5.796 8.117 4.8 3.121.903 13.674-6.076 14.766-1.185 3.903-2.056 9.178-8.82 2.654-3.615 4.401-3.241 2.342-.249 9.49 2.275 9.085-3.428 1.28-1.527.718-8.071 1.217-2.68 10.24-4.332 2.685-6.388 1.092-13.961 3.372-15.489 3.465-6.014 2.654-7.105-.437-7.76-1.936-8.726.25-4.986 4.589-10.439 3.122-2.618 5.057-6.638 5.151-11.343 1.28-1.34 3.778 3.085 12.737 18.137 2.092.654 1.966-1.901 4.496 4.207 3.996.966 4.027-1.028 7.055-3.771 3.216-.405 6.774.904 3.091 1.807.5 1.652-4.621 10.658-2.622 10.003-.375 13.93.968 8.508 2.591 11.125-.031 4.3-1.998 7.76-8.023 21.378-1.468 13.961-.187 16.579-1.561-1.807-5.775 1.745-2.529 2.929-5.557 10.596-8.835 8.819.188 2.991 6.212 11.655.906 14.741-2.373 32.659-1.093 5.453-3.122 6.887-.156 3.304 1.124 2.711 2.466 1.371 4.028-1.745 2.247 3.864 4.746 5.08 6.993 13.68 2.341 6.046 1.467 10.128-1.03 9.598-3.777 14.367-.968 23.123-1.655 11.156-6.025 12.59-10.208 10.346-.157 1.247 3.903 2.773 10.302 4.644 1.53 1.683.281 3.988-15.173 6.607-3.496 3.989.999 8.944-6.088 2.399.25 3.865-1.311 1.527-4.745 1.34-7.774 5.889-.718 6.514 1.686 1.963-.78 9.442 1.217 2.93 3.996 2.181 1.061 3.958-2.559 5.921-.375 5.952 5.526 11.437-.531 1.309-5.37-.063-.968 5.984-2.466-.063-3.122-2.056-1.155.623.344 3.771 3.621 5.858-1.186 1.995-5.432 1.153-2.872 4.02 2.56 1.932 3.465-.093 3.434 7.822 4.027 1.62 1.03 1.714-.655 3.241-6.65 11.935-.468 3.21.843 2.867 4.464 2.182 1.093 2.119-1.343 3.116-2.622.094-1.811 1.651 1.311 8.383-6.306 1.963 1.561 14.336-.936 2.337-4.028 1.184-.562 1.028 5.152 8.664-4.402-.437-12.488-3.583-15.859-7.386-6.743-2.057-12.238-.53-8.054 2.338Z" fill="url(#d)" class="fills"/><defs><linearGradient id="e" x1=".5" y1="0" x2=".5" y2="1"><stop offset="0" stop-color="#927c45" stop-opacity=".28"/><stop offset="1" stop-color="#927c45" stop-opacity="0"/></linearGradient><pattern patternUnits="userSpaceOnUse" x="343.339" y="330.388" width="186.031" height="342.141" id="f"><rect width="186.031" height="342.141" style="fill: url(&quot;#e&quot;);"/></pattern></defs><path d="m343.651 653.27-.312-.53.625-1.433 1.03-.499.437-1.433v-.343h-1.467l.874-1.215v-.904l.749-1.402 1.218-.53-.157-.53.281-.156 2.248-10.907.312-5.111 1.624-4.924.905-4.767-1.186-3.148h-6.587v-.904l5.837-.156.438-.373.312-1.403.593.53.156 1.246h1.779l.157-.373h-1.031l-.468-.499v-.717l.593-.187.312-1.215v-.717l-.593-.187v-.499l.593-.187.156.53h.438l.749-.53-.312-.529.156-1.932 1.654-2.836-.312-.873-.874.343-.156-2.462.593-.343v-1.402l.593-1.06-.312-.716 1.061-1.216v-1.246l-.593-.53.281-2.088 1.218-.904.156-2.462 1.467-1.932-1.467-.187-.156-.872h.749l.874-1.932 1.218-5.298.593-.873.156-2.275.749-1.433-.156-2.275-.905-.187-.437-.53v-1.745l.749-2.306 1.186-1.215 1.062.155.874-1.745-.156-.716-1.031-.156v-1.06l-.749-.53 1.78-3.365-.437-.873.156-1.402.905-1.06 1.186-4.394.593.343.313-.717-.313-1.215 1.187-2.306-.281-1.402-1.062-1.06v-1.06l1.062-1.059.437-2.462-.593-.343v-.904l.905-2.617.874-1.247-.437-.717.437-1.215-.125-2.992.593-1.246v-1.589l-.468-.343.625-1.777.593-5.64.749-.187.749-1.745.281-5.111.905-3.895 1.031-1.746-.874-.529.749-3.896-.156-2.804 1.342-1.247.156-.717.156-5.64.874-5.828-.156-5.266.625-1.247v-.53l-.625-.529v-.873l.313-.374-.157-1.215.906-.717-.156-1.06-.75-.529v-1.403l.906-2.649v-1.402l1.654-1.963v-.873l1.187-1.246 2.091.187 1.499-1.932 1.03-2.307.624-2.648-.468-1.59 1.062-1.246.593-6.513 1.186-2.836 1.061-12.341.594-2.306v-5.485l.281-2.462.624-1.402.718-9.006-.593-2.836h.749l.156-.343.437-4.238-.125-2.15-.749-1.403h.437l.312-.529.437.529.437-.187v-.529l-.437-.156.437-1.434-.593-.529-.437-1.59v-5.64l.749-.873-.593-1.059.874-1.06 1.343.343 3.309-3.179 1.623-.374 1.967.187 2.685-1.402.593-1.06.437-.374.468.187.437-.716h1.343l1.967.903 1.342 2.462h1.342l.75.717 2.684 1.06 1.624.155v.53l.749.904 4.058.187 3.872-1.091v.561l-1.78.686-.312-.343-1.186.872h-.594l-3.746-.342-2.247-.717-2.685-1.932-1.187.343.75.187.281.685.593.187-.125.717 3.122 1.589.437.873.624.187.874 1.059.312 1.247.594-.374v-1.745h.593l.312 1.589h.749l.281-1.06-.749-.716v-.717l.156-.343.905.187 1.187 1.745.468 3.366 1.03.343.593 1.433h1.936l.749-.53 1.655-.187-.437-1.246.593-.156 2.372 1.589.469 2.805 2.997-.872.125-.53-.438-.717-1.498-.156-.281-1.776-1.218.187-.874-.53 2.373-.717 4.776-3.178 1.062-.187.593-1.216.905-.187v-.716l1.031-.53v-.873l.749-.716.905-1.933 2.092-1.963 3.153-4.581 5.369-12.559.906-.342-.312-1.247 1.342-4.425.593-.343-.156-.717 1.218-3.365.749-.53-.312-.686 1.498-5.142-.156-.716 1.342-6.887.157-7.791-1.499-3.054 3.746-.53 2.154 6.326-1.592 11.624.999.249.468 3.896 1.187 3.178 2.091 2.275 2.841 1.59 1.187 1.62-.157 2.805-1.779 6.887v2.306l4.776 2.493 5.526 4.768 10.021 2.992 3.434 2.493.469 2.462-2.092 8.133.125 3.896 3.902 9.536 2.841 4.425 1.03 2.991.156 2.805-1.03 3.366-.312 3.708-7.93 12.559-.281 1.215.281 2.649 2.404 6.357-.312 1.247-1.186 1.589-5.089 3.709 1.218 3.178v1.403l-.469 2.462-.905 1.963-3.434 3.864-1.936.717-1.03-.53-2.716-4.581-1.498-1.433-1.343.187-1.342 1.402-.749 2.119-.281 6.357.874 2.119 2.56 1.933 1.779 2.493.156 3.864-.905 1.932-1.467 1.433-9.428 5.267-1.811 2.493-3.871 9.162-1.655 2.649-1.623 1.402h-2.404l-5.994-2.991-3.278-.873h-2.684l-2.997 1.215-1.499 1.59-2.092 3.708-.593 3.709.312 2.649 1.78 2.461 8.085 2.12 1.187 1.745-.437 2.306-3.309.716-2.529-.373-4.183-1.746h-4.028l-2.091.686-1.218 1.776.437 2.462 1.53 1.403 1.03.373 2.092 2.275v5.298l.905 3.335 1.499 1.433 2.528-.187 1.062.53 1.342 2.992 2.966 1.246 1.342 1.589-.281 4.207-1.654 5.454 1.061 3.366 3.278 1.059 1.655 1.247 1.623 4.207 2.404-.187.905-.686 2.092.873 1.342 3.178 1.936 2.275 2.248.717h8.366l8.835 2.805h1.499l3.277-1.216 2.248-1.932 3.559-6.513 3.465-1.059 1.187-1.777.905-4.768 1.623-1.402 5.838-2.805 3.903-6.357 3.121-1.215 1.936.872 1.498 1.403 4.059 7.572 1.779 1.247 6.275 2.462 1.343 1.402 2.841 4.799-6.869 7.76-1.873 3.864-6.462 6.233-10.583 7.697-13.424 6.825-21.634 8.165-4.09 3.085-4.995 9.349-2.373 8.819-2.528 16.236-4.683 12.964-1.093 7.884-2.466-.156-14.985 4.737h-3.871l-2.404-.53-3.746-4.924-3.715-2.119-1.967-3.864-2.685-2.992-1.779-1.246-2.248-.686h-12.862l-8.21-1.932-8.211-.53-5.245.686-6.431 2.462-3.871.187-2.403-.53-6.119-2.649-4.933-.872Z" fill="url(#f)" class="fills"/><defs><linearGradient id="g" x1=".5" y1="0" x2=".5" y2="1"><stop offset="0" stop-color="#927c45" stop-opacity=".28"/><stop offset="1" stop-color="#927c45" stop-opacity="0"/></linearGradient><pattern patternUnits="userSpaceOnUse" x="238.57" y="652.99" width="210.194" height="407.335" id="h"><rect width="210.194" height="407.335" style="fill: url(&quot;#g&quot;);"/></pattern></defs><path d="m238.57 991.111 4.932-12.31.594-2.649 1.654-3.49v-.686l.593-.716.75-3.833.905-1.745.125-2.12.624-.155.125-.717.468-.156v-1.246l.281-.53h.469v-.873h.28l1.218-2.088.749-.343.125-1.059 4.496-6.638 3.871-9.474 3.746-9.785 6.587-22.687 4.402.717 2.529 1.932 3.59.686 9.584-.156 4.62 2.618 3.746.53 8.367-.53 4.495-1.247 3.715-3.49 7.181-8.757 3.59-2.088h2.685l2.997 1.216 2.684 4.549 2.092.873 2.997-1.215.593-1.06 1.655-1.028 3.59-.904 5.213.53 2.092-2.088.156-2.805-.749-2.088-2.248-2.306-5.963-2.618-2.841-17.171-.749-2.088-2.091-2.274-5.245-3.522-1.78-2.462-.437-2.431.437-3.521.75-2.088.156-5.453.749-4.893 4.62-5.61 3.59-6.481 1.655-4.052.125-5.422-1.499-4.207 1.062-3.335.312-8.258-.905-2.088-4.652-2.462-1.623-2.804-2.841-1.403-4.027-3.521-4.215-1.589-11.488-1.403-3.965-.124.905-2.4v-.873l-.468-.529.156-.904 1.655-3.833.749-.717-.156-1.402 1.342-2.462.156-2.088 1.624-2.462.312-2.462.749-1.745-.312-1.776 1.218-1.216v-2.804l1.03-4.581.905-1.403 1.499-4.051-.157-2.088.594-.872.749-2.462-.156-.53 1.686-4.394.124-2.618h-.468v-.53l1.062-1.776.312-4.02 1.623-3.179.312-1.745 1.343-2.991-.156-2.12.593.374.468-.187-.312-2.991.593-3.148.593-.53-.125-1.246 2.217-10.003v-.717l-.749-.53-.125-.873 1.935-1.059.156-.53 1.031-5.952.593-1.589v-2.119l.905-1.746 2.529-11.623v-2.088l.749-3.865h-.874v-.374l1.623-1.558.469-1.059.28-2.462-.28-2.119.874-3.522-1.031-.685.75-1.59.593-.374 1.186-3.147.468-.187.437-2.618 6.962-.28 4.933.872 6.119 2.649 2.403.53 3.871-.187 6.431-2.462 5.245-.686 8.211.53 8.21 1.932h12.862l2.248.686 1.779 1.246 2.685 2.992 1.967 3.864 3.715 2.119 3.746 4.924 2.404.53h3.871l14.985-4.737 2.466.156-1.124 8.165-3.746 3.646-13.986 6.264-3.59 4.518-5.713 10.721-.593 17.046 2.529 18.106-1.78 4.674-4.558 3.241-7.398 10.689-9.709 21.97-.937 7.386.25 7.323 7.336 10.97 2.903 6.077 4.09 18.012.656 8.102-1.717 6.607-4.371 8.258-.624 5.017 1.685 4.207 5.62 5.984 6.181 11.748 1.78 7.261-1.249 9.318-4.308 9.38.125 4.239 1.03 3.396-2.373 1.932 2.342 6.233-7.368 15.706 1.311 14.273 8.242 11.094 12.3 9.785 2.591 10.097-4.745 14.709-26.879 4.8-.469.716-13.829-.592-8.336-1.028-4.839.53-3.964 3.085-4.839 13.899-5.713 3.583-17.17 3.615-8.804 3.085-10.989 10.783-2.373 6.108h-1.217l-1.655 1.215-3.434 3.833-5.401 7.511-2.84 2.991-1.624 1.216-3.465.872-1.78-1.215-2.996-4.207-3.872-12.06-1.342-2.961-2.404-3.49-2.997-2.618-9.24-5.235-1.218-.187-3.434 3.833-1.655 1.246-2.216.343-5.089-.717-2.56.53.469 1.745 4.183 1.745 1.03 3.335 2.997 2.805.156 1.371-1.342 1.589-1.343.156-3.434-.873-1.061.374-.156 4.02-1.499 1.559-4.932.872-1.343-.187-3.278-2.618-3.277-.872-5.994-.343-2.529-1.932-.749-2.088v-1.558l1.186-1.745 2.529-1.745 4.058-1.746 1.499-1.402 1.03-1.932-.437-2.462-1.936-2.431-5.557-2.96-1.342-3.148v-2.462l1.498-2.804 1.936-1.029 1.342-.187 5.401 1.933 2.373.342 2.841-.156 1.498-1.246-.125-6.794 1.343-4.394-1.062-4.705.312-1.216 4.184-4.394.437-2.275-1.031-1.745-1.966-1.028-5.214 1.901-3.746-.343-3.278-4.02-2.685.343-1.498 1.402-2.092.873Z" fill="url(#h)" class="fills"/><defs><linearGradient id="i" x1=".5" y1="0" x2=".5" y2="1"><stop offset="0" stop-color="#927c45" stop-opacity=".28"/><stop offset="1" stop-color="#927c45" stop-opacity="0"/></linearGradient><pattern patternUnits="userSpaceOnUse" x="271.162" y="790.42" width="82.573" height="123.718" id="j"><rect width="82.573" height="123.718" style="fill: url(&quot;#i&quot;);"/></pattern></defs><path d="m271.162 907.811 1.186-4.643 1.187-2.773.468-4.052 1.186-1.558-.749-.53 1.061-3.521.875-1.402v-1.029l.624-1.402.749-.873.437-3.864 1.78-1.402v-1.59l-.593-.498 1.654-1.59h1.03l1.343-1.059 1.654-2.618 1.062-3.334.749-1.06.125-1.558-.281-.374.905-.343-.624-.872.468-.53-.312-.156.312-1.246 2.248-5.236.125-1.589.655-.343.406-1.06-.749-2.119v-1.745l1.186-.872.593.187.906-2.805 1.342-2.649-.749-1.402.156-1.029h.437l.312.873h.593l1.655-5.08 1.03-5.266 1.343-1.777.468-1.215-.156-.686.437-.373 1.498-5.766v-2.649l1.811-4.549-.312-1.932 1.654-.873-.156-1.402-1.061-.717.312-4.02.593-.53.905.343.281-.53 2.123-7.012 1.468-7.884 1.061-1.807 3.965.124 11.488 1.403 4.215 1.589 4.027 3.521 2.841 1.403 1.623 2.804 4.652 2.462.905 2.088-.312 8.258-1.062 3.335 1.499 4.207-.125 5.422-1.655 4.052-3.59 6.481-4.62 5.61-.749 4.893-.156 5.453-.75 2.088-.437 3.521.437 2.431 1.78 2.462 5.245 3.522 2.091 2.274.749 2.088 2.841 17.171 5.963 2.618 2.248 2.306.749 2.088-.156 2.805-2.092 2.088-5.213-.53-3.59.904-1.655 1.028-.593 1.06-2.997 1.215-2.092-.873-2.684-4.549-2.997-1.216h-2.685l-3.59 2.088-7.181 8.757-3.715 3.49-4.495 1.247-8.367.53-3.746-.53-4.62-2.618-9.584.156-3.59-.686-2.529-1.932Z" fill="url(#j)" class="fills"/><defs><linearGradient id="k" x1=".5" y1="0" x2=".5" y2="1"><stop offset="0" stop-color="#927c45" stop-opacity=".28"/><stop offset="1" stop-color="#927c45" stop-opacity="0"/></linearGradient><pattern patternUnits="userSpaceOnUse" x="21.882" y="988.493" width="649.814" height="1480.565" id="l"><rect width="649.814" height="1480.565" style="fill: url(&quot;#k&quot;);"/></pattern></defs><path d="m671.633 1244.748-.218 32.067-1.904 12.59-8.867 25.242-20.354 36.492-6.212 12.59-5.776 10.191-2.778 12.59 6.15 13.338 24.007 32.254 4.277 9.162 2.684 13.026.562 9.754-3.652 15.987-3.309 11.436-20.605 31.693-2.185 12.715 1.28 10.159 4.402 12.154-.031 12.839-9.335 8.57-20.229 13.244-14.361 31.662-.187 11.281 2.716 10.253-2.747 12.559-10.302 3.708-8.024 9.692-4.745 12.964-.062 25.367-7.586 17.669-13.206 24.058-2.841 13.806-7.992 7.417-15.89 30.602-1.28 10.221-12.175 56.343-3.715 11.095-7.43 10.657-2.123 8.383 18.606 34.934 2.841 9.661-1.717 7.386-11.957 13.213-3.434 10.658 1.842 12.34-10.239 22.687 16.858 74.449-41.646 59.646-11.207 44.439 1.685 48.241-15.859 31.662-2.403 11.592 1.561 9.194-1.561 12.434-9.179 38.112v20.755l1.436 12.964.125 11.998-7.055 8.632-9.615 7.043-8.18 9.473-5.775 11.562-5.245 14.709-1.061-.343-2.248.156-1.342-1.371h-1.187l-.437 1.714-.624.187-.281 1.683-.749.872-.156.842h-1.343l-.281.841-1.373.53-.594 1.184-.437 2.555-1.342 2.244h-1.186v.499l-1.655 1.87-1.935 1.184-.469 1.714-2.091 2.057v2.555l-1.343.841-1.935 2.743-1.062.841v1.558l-2.372 2.711-2.248 1.029-13.58-15.706-7.087-13.369-2.56-10.284-2.154-17.919 5.058-16.766 2.528-16.797-2.435-11.562-9.646-16.796.374-29.637-55.038-154.227 1.093-9.317-17.42-48.085-46.36-130.855-10.957-41.135-37.556-24.525-1.374-19.041 11.145-31.35-23.351-27.331 1.561-33.874-15.578-64.695-47.39-99.379-30.719-89.782-44.393-147.09 24.226-18.137 23.944-20.63 5.932-10.876-.125-16.859-1.343-18.044 4.714-15.706 17.92-22.999 54.008-52.229 15.672-3.74 4.776-8.445-.062-12.06-7.337-10.814-23.382-21.814 12.987-21.098 2.247-1.402 1.062-1.558-.156-.343-.906-.187.156-1.558-.468-.187v-.499l1.811-2.119v.717l-1.343 1.558 1.499.343.281.53.468-.156 8.211-13.618 1.061-3.678 1.936-1.371 2.997-3.864 1.186-2.431-.156-.872 1.654-2.088.874-2.275.75-.53.312.717h.593l9.116-16.236 1.654-2.275 4.184-8.383 2.372-2.961 1.218-3.49 5.963-10.315 5.4-11.53 2.685-4.519 2.685-6.482.905-1.558.437-.187-.156-.53 1.499-2.773 1.498-4.207 1.936-3.491 2.248-5.235-1.624-1.745-.905-2.992.156-2.431 1.467-3.677h.468v1.215l-.593.374-.905 2.088v2.961l1.936 3.334h1.217l.281-.872-1.498-.873v-.53l.593-.342-.125-1.746.437-.529.156-1.403v-.529l-.593-.343v-.717h1.342l.593.717h3.434l.313-.873 1.186-1.215.281-.717-.749-.343-.125-.872.125-4.55.468-.343.156.686h.437v-.343l1.186-.686 4.465-11.218 3.465-7.417h2.029l2.092-.873 1.498-1.402 2.685-.343 3.278 4.02 3.746.343 5.214-1.901 1.966 1.028 1.031 1.745-.437 2.275-4.184 4.394-.312 1.216 1.062 4.705-1.343 4.394.125 6.794-1.498 1.246-2.841.156-2.373-.342-5.401-1.933-1.342.187-1.936 1.029-1.498 2.804v2.462l1.342 3.148 5.557 2.96 1.936 2.431.437 2.462-1.03 1.932-1.499 1.402-4.058 1.746-2.529 1.745-1.186 1.745v1.558l.749 2.088 2.529 1.932 5.994.343 3.277.872 3.278 2.618 1.343.187 4.932-.872 1.499-1.559.156-4.02 1.061-.374 3.434.873 1.343-.156 1.342-1.589-.156-1.371-2.997-2.805-1.03-3.335-4.183-1.745-.469-1.745 2.56-.53 5.089.717 2.216-.343 1.655-1.246 3.434-3.833 1.218.187 9.24 5.235 2.997 2.618 2.404 3.49 1.342 2.961 3.872 12.06 2.996 4.207 1.78 1.215 3.465-.872 1.624-1.216 2.84-2.991 5.401-7.511 3.434-3.833 1.655-1.215h2.06l2.997 2.96 3.434 5.08 2.248 5.048 2.404 7.854 1.186 1.589 1.811 1.028 4.776-1.028 2.685.343 1.936.685 2.684 3.335v2.275l-2.84 5.921.312 2.275 2.404 6.45.281 2.618-.281 4.02-1.499 2.961-.468 2.462.749 9.411-.437 5.079 1.342 4.363v4.332l-.905 4.893 1.342 3.147 8.242 4.706 7.774 5.235 7.305 4.02 2.403 2.088 2.997 4.176 8.367 2.088 1.78.873 11.706 9.068-8.335 12.403-4.745 23.591 2.341 25.553-1.998 10.908-10.77 20.411-11.926 15.364-10.458 20.973 1.467 12.465 6.026 9.754 8.647 7.136 13.362 3.584 24.444-3.21 22.54-5.609 22.009 1.839 31.031 1.994 11.363-5.89 7.462 1.714 11.644-1.994 10.084-.873 12.924-2.43 7.899-4.737 15.702-16.049 13.393-15.052 17.42-7.729 17.888-13.026 19.012-16.766 8.492-2.991 35.558.529Z" fill="url(#l)" class="fills"/><defs><linearGradient id="m" x1=".5" y1="0" x2=".5" y2="1"><stop offset="0" stop-color="#927c45" stop-opacity=".28"/><stop offset="1" stop-color="#927c45" stop-opacity="0"/></linearGradient><pattern patternUnits="userSpaceOnUse" x="321.642" y="997.998" width="219.185" height="164.043" id="n"><rect width="219.185" height="164.043" style="fill: url(&quot;#m&quot;);"/></pattern></defs><path d="m533.616 1077.277-.749 1.184-27.129.686-22.914 9.38-28.128 27.766-25.225 12.092-8.928 7.791-16.421 17.7-4.902 8.165-11.706-9.068-1.78-.873-8.367-2.088-2.997-4.176-2.403-2.088-7.305-4.02-7.774-5.235-8.242-4.706-1.342-3.147.905-4.893v-4.332l-1.342-4.363.437-5.079-.749-9.411.468-2.462 1.499-2.961.281-4.02-.281-2.618-2.404-6.45-.312-2.275 2.84-5.921v-2.275l-2.684-3.335-1.936-.685-2.685-.343-4.776 1.028-1.811-1.028-1.186-1.589-2.404-7.854-2.248-5.048-3.434-5.08-2.997-2.96h-.843l2.373-6.108 10.989-10.783 8.804-3.085 17.17-3.615 5.713-3.583 4.839-13.899 3.964-3.085 4.839-.53 8.336 1.028 13.829.592-6.15 9.069 4.496 16.859 10.396 4.456 14.86 2.12 13.705-4.893 10.114-10.97 10.24-6.045 11.863 10.938 10.802 5.173 23.258 9.349 24.943-.125 9.803 10.222-1.592 22.749Z" fill="url(#n)" class="fills"/><defs><linearGradient id="o" x1=".5" y1="0" x2=".5" y2="1"><stop offset="0" stop-color="#927c45" stop-opacity=".28"/><stop offset="1" stop-color="#927c45" stop-opacity="0"/></linearGradient><pattern patternUnits="userSpaceOnUse" x=".903" y="563.52" width="724.332" height="836.109" id="p"><rect width="724.332" height="836.109" style="fill: url(&quot;#o&quot;);"/></pattern></defs><path d="m171.544 1199.811.062 12.06-4.776 8.476-15.578 3.709-49.794 48.116-4.308 4.145-17.951 23.029-2.123 7.043-2.591 8.663 1.343 18.044.125 16.859-5.932 10.876-19.886 17.14-4.09 3.521-24.225 18.137-20.917-69.338 1.186-.903 15.984-15.613 18.388-19.664 5.838-5.205 4.932-4.518 10.022-10.44 7.929-8.694 12.706-15.302 3.153-4.362 4.183-4.862 11.801-13.057 24.507-31.569 13.486-19.445 5.807-9.349 23.414 21.689 7.305 10.814Zm553.317-424.848-1.498-5.018-.531-10.128-2.092-9.037 1.936-13.992-3.684-9.131.125-4.488 2.622-7.354-4.214-11.281.405-5.08 1.718-4.425 1.529-9.474-1.311-3.708-3.965-4.924 1.03-11.343-12.487-3.584-15.859-7.386-6.774-2.057-12.238-.529-8.054 2.337-6.806-1.091-3.559-3.147.156-3.21-3.84-4.924-3.122-9.162.656-12.652-1.686-13.587-8.741-14.772-8.71-6.482-4.558-1.122-10.364-.155-26.318 4.83-6.275-.031-4.277-1.122-8.46-4.176-8.273-6.046-9.584-9.941-7.461-4.051-5.213.81-2.841 1.434-9.897 11.156-1.873 3.865-6.431 6.232-10.614 7.697-13.393 6.825-21.634 8.165-4.09 3.085-3.215 6.015-1.78 3.365-2.372 8.819-2.498 16.237-4.683 12.963-2.216 16.049-3.778 3.647-13.986 6.263-3.59 4.519-5.713 10.72-.593 17.046 2.529 18.106-1.78 4.706-1.123.81-3.403 2.431-7.399 10.689-9.74 21.97-.906 7.386.25 7.323 7.336 10.97 2.904 6.076 4.089 18.013.656 8.102-1.717 6.607-4.371 8.258-.312 2.524-.312 2.493 1.686 4.176 5.619 5.983.749 1.403 5.432 10.346 1.78 7.261-1.249 9.287-4.339 9.38.125 4.238 1.03 3.397-2.373 1.932 2.373 6.233-7.368 15.737 1.311 14.273 8.242 11.094 12.3 9.785 2.591 10.097-4.776 14.709-26.848 4.799-6.65 9.817 4.496 16.859 10.396 4.456 14.86 2.15 13.705-4.923 10.114-10.97 7.337-4.331 2.934-1.714 11.832 10.938 10.833 5.173 23.227 9.349 24.974-.125 9.803 10.222-1.623 22.749-5.62 8.757-.749 1.153-27.129.717-22.945 9.349-23.258 22.967-4.87 4.799-25.225 12.091-8.928 7.791-16.421 17.701-4.902 8.165-8.335 12.403-4.745 23.559 2.341 25.554-1.998 10.907-10.77 20.412-11.926 15.363-10.458 20.973 1.467 12.466 6.057 9.754 8.616 7.136 13.362 3.553 24.413-3.21 22.571-5.61 21.977 1.839 31.032 1.994 11.363-5.889 7.461 1.714 11.645-1.995 10.052-.841 12.956-2.431 7.898-4.737 15.703-16.049 13.393-15.052 17.42-7.728 17.857-13.026 5.213-4.581 13.83-12.185 8.492-2.992 35.558.499.374-25.99 1.093-28.016 11.363-38.923 11.676-36.679 4.964-15.613.624-1.122 13.018-23.31-6.649-36.741 4.245-11.936-5.588-8.944 5.245-10.346-9.365-5.952-5.245-26.52 9.709-9.349 3.403-22.5-8.991-19.757 5.026-7.292-.874-4.301-5.901-6.794-1.186-27.174 1.53-3.054 2.903-5.796 1.748-11.188 7.586-10.253 2.061-7.011 1.53-16.828 3.465-15.769 4.651-9.162 1.312-5.391-.375-7.292Z" fill="url(#p)" class="fills"/></g></svg>