<svg xmlns="http://www.w3.org/2000/svg" viewBox="0 0 855.04 857.68"><defs><style>.cls-1{fill:#3c3c3c;}</style></defs><g id="Layer_2" data-name="Layer 2"><g id="Layer_1-2" data-name="Layer 1"><path class="cls-1" d="M855,434.52v.71c-.07,3.1-13.89,11.84-17.26,13,2.13-.73-6.79,6-4.28,3.34-19.26,20.33-41.85,38-64.16,54.79-9.2,6.91-17.45,14.9-26.55,21.69-16.6,12.4-23.52,30.53-31.36,48.11-8,17.89-15.94,35.83-31.93,47.92-26.83,20.3-53.19,33.22-85,45.09-1.06.39-7.29.85-10.79-.63-3.17-1.34-11-1.74-11-5.42,0-.55-1.08-2.35,2-3.92.4-.21,18.25-7.73,19.63-7.69a.4.4,0,0,0,.57-.34c.4-.44,11.65-6.13,13.32-6.71,11.87-4.13,21.61-11.63,31.31-19.22,4.16-3.26,6.09-7.68,7.31-13.5a75,75,0,0,0-18.93,14.32c.91-1-10.8,7.21-11,7.31-9.49,3.9-18.71,10.48-28,14.82-.9.42-2.18.86-2.46,1.6-1.42,0-8.42,3-11.17,3.24-10.1.88-19.21,3.68-29.32,4.35-.59,0-11.13-1.52-11-1.44-2.84-1.89-10.16-9.93-8.27-11.72,8.3-7.78,25.32-6.73,35-9.29a129.5,129.5,0,0,0,34.8-14.69c3.09-1.89,21-18.72,21.33-19.22l4.37-13.29h.14c-1.78-1.68-3.09-.08-4.27.81-12.15,9.05-26.47,13.74-40.1,19.72a234.4,234.4,0,0,1-38,13.37c-9.94,2.46-18.32.28-26.65-4.42-4.45-2.52-5.54-6.57-5.84-9.9-.29-3.11,6.34-3,8.47-3.36,11.77-2.2,22.9-6.53,34.27-10.13,20.3-6.43,36.42-18.86,51.16-33.56a72.32,72.32,0,0,1,9.27-7.56c2.7-1.92,4.5-4.29,4.26-8.2-3-.11-4.48,2.59-6.75,3.61-5.15,2.33-10,5.36-15.38,7.11-9.92,3.26-17.93,10-27.38,14.11-9.86,4.29-20.33,5.89-30.7,7.07,0,0-18.33,1.9-17.9,1.66,1.17-.65-11-3-12-4.55-2.86-4.34-6-9.09-2.35-11.48,5-3.3,15.22-3.42,21.17-4.9,8-2,15.61-5.69,23-9.48,9.6-4.95,18.89-10.45,28.84-14.74,6.44-2.77,12.34-6.52,16.52-12.47,2.64-3.77,7.61-5.41,9.24-10.21.76-2.27,1-3.51-2-4.23-8.77-2.1-17.55-3.57-26.6-2.76a19,19,0,0,0-3.43.44c1.15-.31-5.24-.83-4.85-.35-3.33-2.21-10.36-3.84-12.69-7.05-3.15-4.36-5.19-8.41-2.26-11.34,1.92-1.92,13.1-1.55,15.7-2.2,8.5-2.12,17.06-4,25.56-6.08s16.86.4,25.26-.42c16.2-1.59,32.78-2,48-8.16,8.19-3.33,16.62-5.71,24.83-8.85A80.61,80.61,0,0,0,701.2,453c20.25-12.08,37.48-27.8,53.86-44.57,6.28-6.42,12.9-12.51,19-19.12,20.83-22.71,32.31-50.53,42.58-79,1-2.67,1.93-5.33,2.9-8,.17-.45,8.51-22,8.88-22.93C768.39,117.22,614.6,3.23,435.11.07,203.89-4,18.38,171.34,0,392.51c14.11,21.79,43.14,62.43,60,80.2,13.07,13.8,28.35,25.38,41.16,39.28,20.27,22,45.8,36,71,50.94a150.4,150.4,0,0,0,20,9.37c4.92,2.34,8.21,3.73,11.26,5.1A142.48,142.48,0,0,0,229.51,586l5.86.71c22.06-.73,64-1.85,85.19-8.13,18.4-4.33,19.53-4.76,22.9-3.72,2.46.76,5.48-1.28.31,12.64-1.07,2.9-6,5-8.44,6.94-7.38,6-16.6,6.32-24.76,10.74a15.67,15.67,0,0,1-4,1.13c-.5,0-7,2.56-6.57,2-1.92,2.44-1.92,2.44,1.66,4.73,4.16.13,7,3.64,10.17,5.52,18.79,11.06,39.38,16.74,60.63,20.57,11,2,21.86,4.4,32.76,6.74,1.84.4,4.44.53,4.66,3s-1.61,4.34-3.72,5.46c-1.43.76-3.13,2.06-4.73,2.46-19,4.67-37.63,2.29-56.64.52-14.72-1.36-29.56-2.19-44-5.74-1.15-.28-2.56-.48-3.3.47-1,1.23,0,2.53.69,3.65,1.12,1.79,2.94,2.63,4.75,3.5,33.15,15.92,68.28,24.11,104.8,26.89,3.17.24,6.29.61,9.14,2.19,3.06,1.7,3.92,3.17,1,6.39-8,8.93-18.21,11.78-29.55,12.19-7.89.28-15.46-1.84-23.16-3.09-11.16-1.81-22.39-3.23-33.58-4.9C319,697,307.16,692.6,295.14,688.77c-2.79-.88-6.89-2.78-8,0s3.06,4.4,5.65,5.84c19.35,10.79,40,18.66,60.8,26,8.37,2.92,17.38,2.91,26,4.79,7.47,1.62,14.86,3.59,22.23,5.64,1.57.43,4,.87,3.85,3.22-.09,2-1.87,2.85-3.51,3.84-6.33,3.84-13.5,4.75-20.51,5.19-11.27.72-22.65.89-33.73-2.12-15.9-4.32-31.71-9-47.68-13-7.89-2-14.26-7-21.8-9.5-1.25-.42-2.36-1.45-3.61-.19s-1,2.79-.37,4.17c.93,2,2,3.92,4,5,4.86,2.67,8.75,6.61,13.22,9.78,0,0,13.38,7.89,15.27,8.2-.58,0,15.37,7.18,15.85,7.27h0A204.61,204.61,0,0,0,352,766.73c1.37.5,2,.95,1.91,2.92s-1,1.87-2.06,2.73c-6.39,5.06-13.46,1.78-20.36,1-1.67-.2-7.6-3.12-7.82-3.55.69,1.34-4.8-2.56-5.17-2.69-12.69-4.62-22.39-13-37.34-16.79,2.16.55-4.75-1.68-11.94-6.13-8.21-5.09-16.66-9.78-24.75-15-13.66-8.86-23.9-21.33-34.44-33.46-8.83-10.15-16.35-21.5-26.7-30.27-13.18-11.18-25.65-23.25-40.9-31.85s-31-15.24-46.85-22.12c-11.93-5.18-24-9.88-35.73-15.18-8.23-3.71-27.58-8.61-34.47-17.06,61,163.84,218.71,278.06,400.42,278.4C658.4,858.12,851.13,672,855,434.52ZM592,560.34a.57.57,0,0,1,.59.23,4.43,4.43,0,0,1,.69-.47l-.56.43v.17l-.08-.08c0,.11-.07.11-.19.06-.19.13-.48.34-.82.6l.8-.61A3.5,3.5,0,0,1,592,560.34ZM540,581.88a9.62,9.62,0,0,1-1.91.79c1-.49,2.32-1,1.91-.79ZM837.36,481.8c-3.88,27.41-9.82,54.37-18.82,80.59-17.63,51.33-44,97.63-79.72,138.53q-80.05,91.7-196.82,126a392.23,392.23,0,0,1-68.21,13.65,401.3,401.3,0,0,1-55.23,2.82c-65.53-1.77-127.62-17.21-185.5-48.23Q112.28,730.45,52.91,606.68c-.42-.89,1.25,2.18.87,1.26-.15-.51-2.3-5-2.45-5.52H52.5c25.76,11.82,51.33,24.09,77.37,35.27,10.83,4.65,19.69,11.93,29.43,18,3,1.86,16.52,16.25,22.61,20.1q-3.89-5.26-7.86-10.87l7.86,10.87c26.54,35.94,51,60.87,92.61,81,15.2,7.35,29.78,13.77,44.49,20.14a68.1,68.1,0,0,0,28.66,5.41c6.93-.15,9.66-5.51,14.15-9.49,1.55-1.37,2.42-6.67.53-8.09-.2,0-5.55-2.5-25.36-11.27-2.52-1.12-4.86-2.64-7.39-4a2.18,2.18,0,0,1,2.9-.76c15.17,5.1,30.56,2,45.87,1.28a70.33,70.33,0,0,0,26-6.36c4.45-2,6.5-5.55,8.21-9.48,2.14-4.94-1.57-6.14-3-7-8.11-4.69-17-5.4-25.91-7.55-13.67-3.28-24.26-4.6-31.86-6.93-3.47-1.07-7.08-.77-10.23-2.73-.71-.14-2-.26-1.59-1.06.44-1,1.62-.34,2.47,0L379.05,713A62.17,62.17,0,0,0,408,709.9c7.16-2.64,12.3-7.79,17.11-13.29,3.06-3.49,6-8.31,1.9-11.82-4.54-3.85-14.07-4.81-19.81-5.16-24.7-1.51-48.39-8.1-72.08-14.66a35.55,35.55,0,0,1-4.54-1.93,2.9,2.9,0,0,1-2.48-1.09c1.13-1,2.25-.49,3.37,0,13,1.76,26.12,2.78,39.26,3.48,12.92.69,20.32.39,34.28-1.73,3.73-.56,6.8-3.49,9.22-6.48a20.25,20.25,0,0,0,4.43-8.53c.7-3.65-.62-6.76-4.71-8.44a15,15,0,0,0-2.06-.67c-12.43-3.08-28-5.56-40.59-8-20.34-4-40-9.86-58.81-20.67,10.18-2.06,19-5.48,26.92-11.13.94-.68,13-10.37,13.77-13,1.9-6.54,5.09-14.4-1.36-16.58-3.13-1.06-18.49-1-21.7-.89,0,.18-20.64,3.51-21.82,3.6-5.87-.48-11.13,1.85-15.9,2.49-16.32,2.18-37.63,2.84-55.3,2.46l-14.23-2.52c-1.18,0-8-2.19-9-3-13.65-4.08-39-17.59-51.45-24.48a224.31,224.31,0,0,1-50.81-38.31C98,495.87,83.23,483.35,69.34,469.94c-16.68-16.11-31.36-34-45.69-52.21-.93-1.18-1.66-2.63-2.83-3.48-7.46-13.57-7.46-13.57-6.65-21.79,5.77-58.1,22-113,50.32-164.16A413.82,413.82,0,0,1,334.79,24.72a403.57,403.57,0,0,1,118.55-9.66C530.9,20.37,601.9,45.13,665.43,90.19c65.83,46.69,113.9,107.66,144.75,182.27a18,18,0,0,1,.77,12.47,233.16,233.16,0,0,0-7,32,12.61,12.61,0,0,1-1.21,3.88c-11.12,21.79-21.77,43.88-36.46,63.58-11.65,15.61-26.85,27.73-41.56,40.2a186,186,0,0,1-44.12,28.19c-14.91,6.68-30.84,9-47,10.65-21.61,2.18-43.43,2.92-64.54,8.91-7.06,2-23.7,5.36-28.4,10.41-7.84,8.41,6.77,22.13,17.94,25.77,8.62,2.81,17.7,2.66,26.66,3.08,1.65.08,3.32,0,5.49,0-2.12,3.8-5.31,6-8.48,8.16-11.06,7.49-23.25,12.94-35,19.25-5.59,3-11,6-17.38,7.91-5.89,1.73-11.33,4.7-17.79,5.34-4.84.48-11.69.92-14.5,5.13-6,9.06,1.42,23.3,12.23,25.42,7.54,1.48,21.61,1.89,28.11-.14-.6.31-1,.59-.75.65,11.66,2.51,25.88-5.24,35.64-11.12.3-.18.62,1.11.94,2.3-7.22,5.42-15.85,8-24,11.34-8.9,3.62-17.24,8.72-26.83,10.56-1.4.27-2.64,1.07-4.28.57-8.34-2.56-14,1.14-16.2,10.11-1.22,5-.23,8.73,3.9,12.34,11.35,10,24.09,12.58,38.5,9,18.74-4.71,36.81-11.14,53.85-20.34,2.26-1.22,4.48-2.87,7.44-2.54,0,.57.19,1.22,0,1.41-2.8,2.45-28.38,18.67-35,19.75-10.61,1.71-21.17,3.83-31.72,5.92-26.19,5.2-20,10.36-15.53,21.37,1.14,2.81,2.3,5.09,4.79,6.67a31.58,31.58,0,0,0,19.52,4.53c4.44-.28,8.86-.86,13.3-1.3-.17,11.89,4.53,14.72,15.55,18.37,11.35,3.76,19.67-.82,28.67-4.8,13.48-6,29.81-9.83,41.34-19.6a5.36,5.36,0,0,1-.7.1c-.9.09,4.09-3.28,3.43-2.61-.87.88-1.78,1.71-2.72,2.51,7.37-1.28,15.63-11.31,21.25-15.33q7.09-5.07,14.66-9.42c9.8-5.61,16.32-14.62,22-24,10.39-17.22,18.45-35.65,26.26-54.15-.08.2,15-16.73,14.57-16.73,7.86-4.26,18.54-14.63,26-21.8l-.62.39c-1.45.64,4.39-4,3.2-2.86l-2.58,2.47c24-14.81,44.8-35.15,54.15-44.13,4.42-4.23,8.83-8.47,13.65-13.1-.8,7.66-1.21,15.14-2.26,22.6Z"/><path class="cls-1" d="M574.84,573.76c-7.41,5.94-16.46,8.61-25,12.09-8.9,3.62-17.24,8.72-26.83,10.56-1.4.27-2.64,1.07-4.28.57-8.34-2.56-14,1.14-16.2,10.11-1.22,5-.23,8.73,3.9,12.34,11.35,10,24.09,12.58,38.5,9,18.74-4.71,36.81-11.14,53.85-20.34,2.26-1.22,4.48-2.87,7.44-2.54,0,.57.19,1.22,0,1.41-2.8,2.45-28.38,18.67-35,19.75-10.61,1.71-21.17,3.83-31.72,5.92C513.31,637.83,521,644.21,525,654c1.13,2.81,5.78,4.83,8.27,6.41,6,3.78,8.11,3.22,15,2.79,4.44-.28,14.86-2.86,19.3-3.3-.17,11.89.53,9.72,11.55,13.37,11.35,3.76,17.67,3.18,26.67-.8,13.48-6,29.81-8.83,41.34-18.6l7.47-3.85c6.83-2.26,8.17-3.46,13.79-7.48C673.1,639.15,679,634,684,631.12c9.8-5.61,15.32-13.62,21-23,10.39-17.22,18.45-34.65,26.26-53.15-.08.2,15-16.73,14.57-16.73,7.86-4.26,18.54-14.63,26-21.8,24-14.81,44.8-35.15,54.15-44.13,4.42-4.23,8.83-8.47,13.65-13.1-.73,7.71-1.14,15.23-2.19,22.65-3.88,27.41-9.82,54.37-18.82,80.59-17.63,51.33-44,97.63-79.72,138.53Q658.87,792.68,542.1,827a392.23,392.23,0,0,1-68.21,13.65,401.3,401.3,0,0,1-55.23,2.82c-65.53-1.77-127.62-17.21-185.5-48.23Q112.38,730.51,53,606.74c-.42-.89,1.25,2.18.87,1.26-.15-.51-2.3-5-2.45-5.52H52.6c25.76,11.82,51.33,24.09,77.37,35.27,10.83,4.65,19.69,11.93,29.43,18,3,1.86,16.52,16.25,22.61,20.1,26.54,35.94,51,60.87,92.61,81,15.2,7.35,29.78,13.77,44.49,20.14a68.1,68.1,0,0,0,28.66,5.41c6.93-.15,9.66-5.51,14.15-9.49,1.55-1.37,2.42-6.67.53-8.09l-.16-.12a.61.61,0,0,1,.16.12c-.2,0-5.55-2.5-25.36-11.27-2.52-1.12-4.86-2.64-7.39-4a2.18,2.18,0,0,1,2.9-.76c15.17,5.1,30.56,2,45.87,1.28a70.33,70.33,0,0,0,26-6.36c4.45-2,6.5-5.55,8.21-9.48,2.14-4.94-1.57-6.14-3-7-8.11-4.69-17-5.4-25.91-7.55-13.67-3.28-24.26-4.6-31.86-6.93-3.47-1.07-7.08-.77-10.23-2.73-.71-.14-2-.26-1.59-1.06.44-1,1.62-.34,2.47,0l36.59,4.13A62.17,62.17,0,0,0,408.09,710c7.16-2.64,12.3-7.79,17.11-13.29,3.06-3.49,6-8.31,1.9-11.82C422.56,681,413,680,407.29,679.69c-24.7-1.51-48.39-8.1-72.08-14.66a35.55,35.55,0,0,1-4.54-1.93,2.9,2.9,0,0,1-2.48-1.09c1.13-1,2.25-.49,3.37,0,13,1.76,26.12,2.78,39.26,3.48,12.92.69,20.32.39,34.28-1.73,3.73-.56,6.8-3.49,9.22-6.48a20.25,20.25,0,0,0,4.43-8.53c.26.44.52.87.79,1.3,6,9.74,13.08,18.87,19.63,28.3,3.42,4.92,6.13,10.74,11.7,13.95,7.59,4.37,13.41,2.06,13.14-5.9-.3-8.6,2.18-16.41,4.36-24.43,3.38-12.45,3.82-25.57,8.06-37.8,12.25-35.31,21.17-71.56,30.81-107.62q7.38-27.61,12.47-55.75c2.08-11.43,3.8-23,4.06-34.75.19-8.47,1.86-16.86-.24-25.34-4.22-17-7.37-34.21-7.84-51.75-.74-28-.58-55.95-1.83-83.89-.92-20.77.46-41.57-1.49-62.29-1.69-18.07-.37-36.31-3.1-54.32-.53-3.48,1.33-4.94,4.31-6.06,3.59-1.36,7.87-.91,10.82-4,6.58-6.79,14.4-12.8,19.31-20.64a136.69,136.69,0,0,1,11.75-16.53c6.75-7.93,5.19-18.68-2.62-26.59C548,69.7,543.22,65,542.66,57.42c-.26-3.5-3-5.79-6.63-6.64,17.4,4-35.51-20.5-18.87-8.88-10.81-7.27-21.56-12.76-35.43-7.56-7.48,2.81-12.52,6.75-15,14.15-1.35,4-2.81,8-4,12.09-4.4,14.61-11.39,27.81-22.7,38.12-6.3,5.73-13.28,10.84-23,10.24-6.3-.38-12.37-2.64-16-2.11-8.67.24-14.62.15-20.53.62-14.34,1.15-19.83,9.44-12.59,20.47,8.84,13.47,9.08,28.46,10.61,43.48,1,10.16-1.56,19.82-2.41,29.72a310.51,310.51,0,0,1-10.2,55.33A413.47,413.47,0,0,1,313.6,373.54c-6.53,10-19.93,19.6-23.14,31.5a2.25,2.25,0,0,0-.08,1c-1.89-.12-2.32,1.5-2.17,3.82.3,4.94,2.38,9.29,4.72,13.52,10.86,19.65,23,38.58,33.39,58.5,8.55,16.33,20.47,30.58,29.08,46.93,15.13,28.72,27.4,58.93,44.91,86.39,5.12,8,9.14,16.65,13.57,25a15,15,0,0,0-2.06-.67c-12.43-3.08-28-5.56-40.59-8-20.34-4-40-9.86-58.81-20.67,10.18-2.06,19-5.48,26.92-11.13.94-.68,13-10.37,13.77-13,1.9-6.54,5.09-14.4-1.36-16.58-3.13-1.06-18.49-1-21.7-.89,0,.18-20.64,3.51-21.82,3.6-5.87-.48-11.13,1.85-15.9,2.49-16.32,2.18-37.63,2.84-55.3,2.46l-14.17-2.47c-1.18,0-8-2.19-9-3-13.65-4.08-39-17.59-51.45-24.48a224.31,224.31,0,0,1-50.81-38.31C98,495.87,83.23,483.35,69.34,469.94c-16.68-16.11-31.36-34-45.69-52.21-.93-1.18-1.66-2.63-2.83-3.48-7.46-13.57-7.46-13.57-6.65-21.79,5.77-58.1,22-113,50.32-164.16A413.82,413.82,0,0,1,334.79,24.72a403.57,403.57,0,0,1,118.55-9.66C530.9,20.37,601.9,45.13,665.43,90.19c65.83,46.69,113.9,107.66,144.75,182.27a18,18,0,0,1,.77,12.47,233.16,233.16,0,0,0-7,32,12.61,12.61,0,0,1-1.21,3.88c-11.12,21.79-21.77,43.88-36.46,63.58-11.65,15.61-26.85,27.73-41.56,40.2a186,186,0,0,1-44.12,28.19c-14.91,6.68-30.84,9-47,10.65-21.61,2.18-43.43,2.92-64.54,8.91-7.06,2-23.7,5.36-28.4,10.41-7.84,8.41,6.77,22.13,17.94,25.77,8.62,2.81,17.7,2.66,26.66,3.08,1.65.08,3.32,0,5.49,0-2.12,3.8-5.31,6-8.48,8.16-11.06,7.49-23.25,12.94-35,19.25-5.59,3-11,6-17.38,7.91-5.89,1.73-11.33,4.7-17.79,5.34-4.84.48-11.69.92-14.5,5.13-6,9.06,1.42,23.3,12.23,25.42,7.54,1.48,21.61,1.89,28.11-.14-.6.31-1,.59-.75.65,11.66,2.51,25.88-5.24,35.64-11.12"/><path class="cls-1" d="M552.69,74.62c-4.88-4.94-9.62-9.62-10.18-17.22-.26-3.5-3-5.79-6.63-6.64,17.4,4-35.51-20.5-18.87-8.88-10.66-7.25-21.41-12.74-35.28-7.54-7.48,2.81-12.52,6.75-15,14.15-1.35,4-2.81,8-4,12.09-4.4,14.61-11.39,27.81-22.7,38.12-6.3,5.73-13.28,10.84-23,10.24-6.3-.38-12.37-2.64-16-2.11-8.67.24-14.62.15-20.53.62-14.34,1.15-19.83,9.44-12.59,20.47,8.84,13.47,9.08,28.46,10.61,43.48,1,10.16-1.56,19.82-2.41,29.72a310.51,310.51,0,0,1-10.2,55.33A413.47,413.47,0,0,1,313.6,373.54c-6.53,10-19.93,19.6-23.14,31.5a2.25,2.25,0,0,0-.08,1c-1.89-.12-2.32,1.5-2.17,3.82.3,4.94,2.38,9.29,4.72,13.52,10.86,19.65,23,38.58,33.39,58.5,8.55,16.33,20.47,30.58,29.08,46.93,15.13,28.72,27.4,58.93,44.91,86.39,5.12,8,9.14,16.65,13.57,25,1.5,2.85,3.06,5.68,4.71,8.44.26.44.52.87.79,1.3,6,9.74,13.08,18.87,19.63,28.3,3.42,4.92,6.13,10.74,11.7,14,7.59,4.37,13.41,2.06,13.14-5.9-.3-8.6,2.18-16.41,4.36-24.43,3.38-12.45,3.82-25.57,8.06-37.8,12.25-35.31,21.17-71.56,30.81-107.62q7.38-27.62,12.47-55.75c2.08-11.43,3.8-23,4.06-34.75.19-8.47,1.86-16.86-.24-25.34-4.22-17-7.37-34.21-7.84-51.75-.74-28-.58-56-1.83-83.89-.92-20.77.46-41.57-1.49-62.29-1.69-18.07-.37-36.31-3.1-54.32-.53-3.48,1.33-4.94,4.31-6.06,3.59-1.36,7.87-.91,10.82-4,6.58-6.79,14.4-12.8,19.31-20.64a136.69,136.69,0,0,1,11.75-16.53C562.06,93.28,560.5,82.53,552.69,74.62ZM544.5,97.2c-3.76,5.16-4.25,11.13-8.35,16.24-6.79,8.44-15.25,14.64-24.38,19.58s-12.88,7.9-11.79,18.3c1,9.76-1.06,19.59,1.56,29.28,3.72,13.8,2,27.94,1.55,41.91-.62,19.13.4,38.18,1.51,57.24a37.92,37.92,0,0,1,0,5c-1.77,23.18,0,46.35.48,69.51a167.12,167.12,0,0,0,5.11,37.7,137.31,137.31,0,0,1-.09,69.73c-5.64,21.44-9.82,43.29-15.9,64.6-9.12,31.94-18,64-28.93,95.4-2.46,7-9,33.31-8.33,41.22.51,6.22-2.22,11.22-3.33,18.13-7.86-11.25-15.75-20.78-20.89-31.83-10.11-21.76-23.07-41.87-34.64-62.78-11.72-21.18-20.71-43.71-32.38-64.93-8.09-14.73-18.91-27.65-27-42.29-11.81-21.27-24.93-41.75-37.5-62.57-2-3.38-2.25-5.38,1.68-7.19,1.39-.64,7.71-7.66,7.8-7.66,16.21-27.32,34.49-53.52,46.52-83.11,10.31-25.36,19.61-51.05,25.06-78.11a451,451,0,0,0,7.65-54.77c.91-12.05,1.3-24.37-2.78-36.14a7.58,7.58,0,0,1-.61-3.25c.66-5.42-5.84-18.81-8.22-22.18-2.06-2.91-1.2-4.41,1.94-4.5,9.22-.27,18.4-1.83,27.67-.74,1.54.18,13.81-.09,14.87-.71,1.61-1,5.31-.79,10.54-2.55,3.82-1.28,14.58-5.58,17.08-8.51,9.56-11.16,10.3-17,13.61-21.89,7.21-10.8,8.51-22.72,12.75-34.73,2.24-6.35,12.59-9.21,19.39-7.56s19-1.23,24,2.71l12.74,10c1.29,1,3.19,3,3.17,5.46s7.91,18.68,7.76,18.68C544.6,80.89,545.82,95.4,544.5,97.2Z"/></g></g></svg>